<?xml version="1.0" encoding="utf-8"?>
<!-- Generator: Adobe Illustrator 24.2.0, SVG Export Plug-In . SVG Version: 6.00 Build 0)  -->
<svg version="1.1" xmlns="http://www.w3.org/2000/svg" xmlns:xlink="http://www.w3.org/1999/xlink" x="0px" y="0px"
	 viewBox="0 0 80 80" style="enable-background:new 0 0 80 80;" xml:space="preserve">
<style type="text/css">
	.st0{fill:#3953A4;}
	.st1{fill:#FFFFFF;}
</style>
<g id="Layer_1">
	<circle class="st0" cx="40" cy="39.3" r="38.1"/>
</g>
<g id="Layer_2">
	<g>
		<path class="st1" d="M52.1,50.3c-0.7-0.5-1.6-0.4-2.1,0.3c-0.5,0.7-0.4,1.6,0.3,2.1c1.8,1.4,2.9,3.4,2.9,5.8c0,4-3.3,7.2-7.2,7.2
			s-7.2-3.3-7.2-7.2c0-2.3,1.1-4.4,2.9-5.8c0.7-0.5,0.8-1.4,0.3-2.1c-0.5-0.7-1.4-0.8-2.1-0.3c-2.6,1.9-4.1,4.9-4.1,8.2
			c0,5.7,4.6,10.3,10.3,10.3c5.7,0,10.3-4.6,10.3-10.3C56.2,55.3,54.7,52.2,52.1,50.3z"/>
		<path class="st1" d="M47.5,59.5v-10c0-0.9-0.7-1.6-1.6-1.6c-0.9,0-1.6,0.7-1.6,1.6v10c0,0.9,0.7,1.6,1.6,1.6
			C46.8,61.1,47.5,60.3,47.5,59.5z"/>
		<path class="st1" d="M29.3,16.1c2.4-2.4,5.6-3.8,9-3.8c3.4,0,6.6,1.4,9,3.8c0.3,0.3,0.7,0.4,1.1,0.4s0.8-0.1,1.1-0.4
			c0.6-0.6,0.6-1.6,0-2.2c-2.9-2.9-6.9-4.6-11.1-4.6c-4.3,0-8.2,1.6-11.2,4.6c-0.6,0.6-0.6,1.6,0,2.2C27.7,16.7,28.7,16.7,29.3,16.1
			z"/>
		<path class="st1" d="M31.8,18.6c-0.6,0.6-0.6,1.6,0,2.2c0.3,0.3,0.7,0.4,1.1,0.4s0.8-0.1,1.1-0.4c2.3-2.3,6.3-2.3,8.6,0
			c0.6,0.6,1.6,0.6,2.2,0c0.6-0.6,0.6-1.6,0-2.2c-1.8-1.8-4.1-2.7-6.5-2.7C35.9,15.9,33.6,16.9,31.8,18.6z"/>
		<path class="st1" d="M60.8,40L39.3,23.3c-0.6-0.4-1.3-0.4-1.9,0L15.8,40c-0.7,0.5-0.8,1.5-0.3,2.1c0.5,0.7,1.5,0.8,2.1,0.3
			l3.8-2.9v18.9c0,0.9,0.7,1.6,1.6,1.6h8c0.9,0,1.6-0.7,1.6-1.6s-0.7-1.6-1.6-1.6h-6.5V37.1l13.8-10.7l13.8,10.7v9.3
			c0,0.9,0.7,1.6,1.6,1.6s1.6-0.7,1.6-1.6v-6.9l3.8,2.9c0.3,0.2,0.6,0.3,0.9,0.3c0.4,0,0.9-0.2,1.2-0.6C61.5,41.4,61.4,40.5,60.8,40
			z"/>
	</g>
</g>
</svg>
