<svg xmlns="http://www.w3.org/2000/svg" xmlns:xlink="http://www.w3.org/1999/xlink" width="214" height="60" viewBox="0 0 214 60">
  <defs>
    <clipPath id="clip-path">
      <rect id="Rectangle_13" data-name="Rectangle 13" width="20" height="20" fill="#fff"/>
    </clipPath>
    <clipPath id="clip-path-2">
      <rect id="Rectangle_14" data-name="Rectangle 14" width="20" height="20" transform="translate(44)" fill="#fff"/>
    </clipPath>
    <clipPath id="clip-path-3">
      <rect id="Rectangle_15" data-name="Rectangle 15" width="20" height="20" transform="translate(88)" fill="#fff"/>
    </clipPath>
    <clipPath id="clip-path-4">
      <rect id="Rectangle_16" data-name="Rectangle 16" width="20" height="20" transform="translate(132)" fill="#fff"/>
    </clipPath>
    <clipPath id="clip-path-5">
      <rect id="Rectangle_17" data-name="Rectangle 17" width="15" height="15" transform="translate(0.749)" fill="#fff"/>
    </clipPath>
    <clipPath id="clip-path-6">
      <rect id="Rectangle_18" data-name="Rectangle 18" width="14" height="14" transform="translate(0.021 0.5)" fill="#fff"/>
    </clipPath>
    <clipPath id="clip-path-7">
      <rect id="Rectangle_13-2" data-name="Rectangle 13" width="20" height="20"/>
    </clipPath>
    <clipPath id="clip-path-8">
      <rect id="Rectangle_14-2" data-name="Rectangle 14" width="20" height="20" transform="translate(44)"/>
    </clipPath>
    <clipPath id="clip-path-9">
      <rect id="Rectangle_15-2" data-name="Rectangle 15" width="20" height="20" transform="translate(88)"/>
    </clipPath>
    <clipPath id="clip-path-10">
      <rect id="Rectangle_16-2" data-name="Rectangle 16" width="20" height="20" transform="translate(132)"/>
    </clipPath>
    <clipPath id="clip-path-11">
      <rect id="Rectangle_17-2" data-name="Rectangle 17" width="15" height="15" transform="translate(0.749)"/>
    </clipPath>
    <clipPath id="clip-path-12">
      <rect id="Rectangle_18-2" data-name="Rectangle 18" width="14" height="14" transform="translate(0.021 0.5)"/>
    </clipPath>
  </defs>
  <g id="Group_26" data-name="Group 26" transform="translate(-1313 -1808)">
    <g id="Group_21" data-name="Group 21" transform="translate(1313 1808)">
      <g id="Group_17" data-name="Group 17" clip-path="url(#clip-path)">
        <path id="Path_4" data-name="Path 4" d="M17.945,5.927A8.185,8.185,0,0,0,20,3.8h0a8.563,8.563,0,0,1-2.362.647,4.078,4.078,0,0,0,1.8-2.266,8.2,8.2,0,0,1-2.6.992,4.1,4.1,0,0,0-7.093,2.8,4.222,4.222,0,0,0,.095.935A11.608,11.608,0,0,1,1.393,2.622,4.1,4.1,0,0,0,2.652,8.1,4.053,4.053,0,0,1,.8,7.6v.045a4.119,4.119,0,0,0,3.285,4.029,4.076,4.076,0,0,1-1.075.135,3.619,3.619,0,0,1-.776-.07,4.141,4.141,0,0,0,3.831,2.857A8.242,8.242,0,0,1,.981,16.341,7.761,7.761,0,0,1,0,16.285a11.547,11.547,0,0,0,6.29,1.84A11.59,11.59,0,0,0,17.945,5.927Z" fill="#fff"/>
      </g>
      <g id="Group_18" data-name="Group 18" clip-path="url(#clip-path-2)">
        <path id="Path_5" data-name="Path 5" d="M54,4.865A5.132,5.132,0,1,0,59.135,10,5.131,5.131,0,0,0,54,4.865Zm0,8.463A3.331,3.331,0,1,1,57.334,10,3.33,3.33,0,0,1,54,13.328Z" fill="#fff"/>
        <path id="Path_6" data-name="Path 6" d="M58.123.065c-1.84-.086-6.4-.082-8.239,0a5.976,5.976,0,0,0-4.2,1.617C43.764,3.605,44.01,6.2,44.01,10c0,3.89-.217,6.422,1.677,8.316,1.931,1.93,4.56,1.677,8.316,1.677,3.853,0,5.183,0,6.546-.525,1.853-.719,3.251-2.375,3.388-5.349.087-1.841.082-6.4,0-8.239C63.771,2.367,61.887.238,58.123.065Zm2.912,16.977c-1.261,1.261-3.01,1.148-7.057,1.148-4.167,0-5.838.062-7.057-1.161-1.4-1.4-1.15-3.642-1.15-7.044,0-4.6-.472-7.92,4.148-8.157,1.062-.038,1.374-.05,4.047-.05L54,1.8c4.441,0,7.925-.465,8.134,4.155.048,1.054.058,1.371.058,4.039C62.2,14.115,62.275,15.8,61.035,17.041Z" fill="#fff"/>
        <path id="Path_7" data-name="Path 7" d="M59.338,5.862a1.2,1.2,0,1,0-1.2-1.2A1.2,1.2,0,0,0,59.338,5.862Z" fill="#fff"/>
      </g>
      <g id="Group_19" data-name="Group 19" clip-path="url(#clip-path-3)">
        <path id="Path_8" data-name="Path 8" d="M101.331,3.321h1.826V.141A23.588,23.588,0,0,0,100.5,0c-2.633,0-4.436,1.656-4.436,4.7V7.5h-2.9v3.555h2.9V20h3.562V11.056h2.788l.442-3.555h-3.23V5.052C99.622,4.024,99.9,3.321,101.331,3.321Z" fill="#fff"/>
      </g>
      <g id="Group_20" data-name="Group 20" clip-path="url(#clip-path-4)">
        <path id="Path_9" data-name="Path 9" d="M151.995,20H152V12.664c0-3.588-.772-6.353-4.967-6.353a4.356,4.356,0,0,0-3.923,2.156h-.058V6.647h-3.978V20h4.142V13.388c0-1.741.33-3.424,2.486-3.424,2.124,0,2.156,1.987,2.156,3.536V20Z" fill="#fff"/>
        <path id="Path_10" data-name="Path 10" d="M132.33,6.647h4.147V20H132.33Z" fill="#fff"/>
        <path id="Path_11" data-name="Path 11" d="M134.4,0a2.413,2.413,0,1,0,2.4,2.4A2.4,2.4,0,0,0,134.4,0Z" fill="#fff"/>
      </g>
      <g id="Group_22" data-name="Group 22" transform="translate(170.251 3)" clip-path="url(#clip-path-5)">
        <path id="Path_12" data-name="Path 12" d="M13.551,2.2a7.5,7.5,0,1,0,2.2,5.3A7.5,7.5,0,0,0,13.551,2.2Zm-1.444,8.251h0v0l-.38.377a2,2,0,0,1-1.887.54,6.644,6.644,0,0,1-1.93-.865A8.916,8.916,0,0,1,6.386,9.27,8.986,8.986,0,0,1,5.248,7.89a7,7,0,0,1-.855-1.73,2,2,0,0,1,.5-2.042l.445-.445a.317.317,0,0,1,.449,0h0l1.4,1.4a.317.317,0,0,1,0,.449h0l-.825.825a.672.672,0,0,0-.07.875A9.649,9.649,0,0,0,7.286,8.38a9.589,9.589,0,0,0,1.3,1.093A.677.677,0,0,0,9.451,9.4l.8-.81a.317.317,0,0,1,.449,0h0L12.106,10A.317.317,0,0,1,12.106,10.447Z" fill="#fff"/>
      </g>
      <g id="Group_23" data-name="Group 23" transform="translate(199.979 2.5)" clip-path="url(#clip-path-6)">
        <path id="Path_13" data-name="Path 13" d="M7.023.5h0A7,7,0,0,0,1.354,11.6L.481,14.2l2.691-.86A7,7,0,1,0,7.023.5ZM11.1,10.385a1.976,1.976,0,0,1-1.374.988c-.366.078-.844.14-2.452-.527A8.769,8.769,0,0,1,3.785,7.768a4,4,0,0,1-.831-2.111,2.235,2.235,0,0,1,.716-1.7A1.017,1.017,0,0,1,4.385,3.7c.087,0,.165,0,.234.008.206.009.309.021.444.346.169.407.58,1.411.629,1.515a.417.417,0,0,1,.03.379A1.21,1.21,0,0,1,5.5,6.27c-.1.119-.2.21-.3.338-.094.111-.2.23-.082.436A6.213,6.213,0,0,0,6.246,8.455,5.146,5.146,0,0,0,7.887,9.467a.443.443,0,0,0,.493-.078,8.471,8.471,0,0,0,.547-.724.391.391,0,0,1,.5-.152c.189.066,1.189.56,1.395.662s.341.152.391.239A1.744,1.744,0,0,1,11.1,10.385Z" fill="#fff"/>
      </g>
    </g>
    <g id="Group_25" data-name="Group 25" transform="translate(1313 1848)">
      <g id="Group_17-2" data-name="Group 17" clip-path="url(#clip-path-7)">
        <path id="Path_4-2" data-name="Path 4" d="M17.945,5.927A8.185,8.185,0,0,0,20,3.8h0a8.563,8.563,0,0,1-2.362.647,4.078,4.078,0,0,0,1.8-2.266,8.2,8.2,0,0,1-2.6.992,4.1,4.1,0,0,0-7.093,2.8,4.222,4.222,0,0,0,.095.935A11.608,11.608,0,0,1,1.393,2.622,4.1,4.1,0,0,0,2.652,8.1,4.053,4.053,0,0,1,.8,7.6v.045a4.119,4.119,0,0,0,3.285,4.029,4.076,4.076,0,0,1-1.075.135,3.619,3.619,0,0,1-.776-.07,4.141,4.141,0,0,0,3.831,2.857A8.242,8.242,0,0,1,.981,16.341,7.761,7.761,0,0,1,0,16.285a11.547,11.547,0,0,0,6.29,1.84A11.59,11.59,0,0,0,17.945,5.927Z"/>
      </g>
      <g id="Group_18-2" data-name="Group 18" clip-path="url(#clip-path-8)">
        <path id="Path_5-2" data-name="Path 5" d="M54,4.865A5.132,5.132,0,1,0,59.135,10,5.131,5.131,0,0,0,54,4.865Zm0,8.463A3.331,3.331,0,1,1,57.334,10,3.33,3.33,0,0,1,54,13.328Z"/>
        <path id="Path_6-2" data-name="Path 6" d="M58.123.065c-1.84-.086-6.4-.082-8.239,0a5.976,5.976,0,0,0-4.2,1.617C43.764,3.605,44.01,6.2,44.01,10c0,3.89-.217,6.422,1.677,8.316,1.931,1.93,4.56,1.677,8.316,1.677,3.853,0,5.183,0,6.546-.525,1.853-.719,3.251-2.375,3.388-5.349.087-1.841.082-6.4,0-8.239C63.771,2.367,61.887.238,58.123.065Zm2.912,16.977c-1.261,1.261-3.01,1.148-7.057,1.148-4.167,0-5.838.062-7.057-1.161-1.4-1.4-1.15-3.642-1.15-7.044,0-4.6-.472-7.92,4.148-8.157,1.062-.038,1.374-.05,4.047-.05L54,1.8c4.441,0,7.925-.465,8.134,4.155.048,1.054.058,1.371.058,4.039C62.2,14.115,62.275,15.8,61.035,17.041Z"/>
        <path id="Path_7-2" data-name="Path 7" d="M59.338,5.862a1.2,1.2,0,1,0-1.2-1.2A1.2,1.2,0,0,0,59.338,5.862Z"/>
      </g>
      <g id="Group_19-2" data-name="Group 19" clip-path="url(#clip-path-9)">
        <path id="Path_8-2" data-name="Path 8" d="M101.331,3.321h1.826V.141A23.588,23.588,0,0,0,100.5,0c-2.633,0-4.436,1.656-4.436,4.7V7.5h-2.9v3.555h2.9V20h3.562V11.056h2.788l.442-3.555h-3.23V5.052C99.622,4.024,99.9,3.321,101.331,3.321Z"/>
      </g>
      <g id="Group_20-2" data-name="Group 20" clip-path="url(#clip-path-10)">
        <path id="Path_9-2" data-name="Path 9" d="M151.995,20H152V12.664c0-3.588-.772-6.353-4.967-6.353a4.356,4.356,0,0,0-3.923,2.156h-.058V6.647h-3.978V20h4.142V13.388c0-1.741.33-3.424,2.486-3.424,2.124,0,2.156,1.987,2.156,3.536V20Z"/>
        <path id="Path_10-2" data-name="Path 10" d="M132.33,6.647h4.147V20H132.33Z"/>
        <path id="Path_11-2" data-name="Path 11" d="M134.4,0a2.413,2.413,0,1,0,2.4,2.4A2.4,2.4,0,0,0,134.4,0Z"/>
      </g>
      <g id="Group_22-2" data-name="Group 22" transform="translate(170.251 3)" clip-path="url(#clip-path-11)">
        <path id="Path_12-2" data-name="Path 12" d="M13.551,2.2a7.5,7.5,0,1,0,2.2,5.3A7.5,7.5,0,0,0,13.551,2.2Zm-1.444,8.251h0v0l-.38.377a2,2,0,0,1-1.887.54,6.644,6.644,0,0,1-1.93-.865A8.916,8.916,0,0,1,6.386,9.27,8.986,8.986,0,0,1,5.248,7.89a7,7,0,0,1-.855-1.73,2,2,0,0,1,.5-2.042l.445-.445a.317.317,0,0,1,.449,0h0l1.4,1.4a.317.317,0,0,1,0,.449h0l-.825.825a.672.672,0,0,0-.07.875A9.649,9.649,0,0,0,7.286,8.38a9.589,9.589,0,0,0,1.3,1.093A.677.677,0,0,0,9.451,9.4l.8-.81a.317.317,0,0,1,.449,0h0L12.106,10A.317.317,0,0,1,12.106,10.447Z"/>
      </g>
      <g id="Group_23-2" data-name="Group 23" transform="translate(199.979 2.5)" clip-path="url(#clip-path-12)">
        <path id="Path_13-2" data-name="Path 13" d="M7.023.5h0A7,7,0,0,0,1.354,11.6L.481,14.2l2.691-.86A7,7,0,1,0,7.023.5ZM11.1,10.385a1.976,1.976,0,0,1-1.374.988c-.366.078-.844.14-2.452-.527A8.769,8.769,0,0,1,3.785,7.768a4,4,0,0,1-.831-2.111,2.235,2.235,0,0,1,.716-1.7A1.017,1.017,0,0,1,4.385,3.7c.087,0,.165,0,.234.008.206.009.309.021.444.346.169.407.58,1.411.629,1.515a.417.417,0,0,1,.03.379A1.21,1.21,0,0,1,5.5,6.27c-.1.119-.2.21-.3.338-.094.111-.2.23-.082.436A6.213,6.213,0,0,0,6.246,8.455,5.146,5.146,0,0,0,7.887,9.467a.443.443,0,0,0,.493-.078,8.471,8.471,0,0,0,.547-.724.391.391,0,0,1,.5-.152c.189.066,1.189.56,1.395.662s.341.152.391.239A1.744,1.744,0,0,1,11.1,10.385Z"/>
      </g>
    </g>
  </g>
</svg>
