<svg id="Layer_1" data-name="Layer 1" xmlns="http://www.w3.org/2000/svg" viewBox="0 0 76.21 76.21"><defs><style>.cls-1{fill:#3953a4;}.cls-2{fill:#fff;}</style></defs><circle class="cls-1" cx="38.11" cy="38.11" r="38.11"/><path class="cls-2" d="M63,37.56a2.71,2.71,0,0,0-2.54,1.68H56.26A11.2,11.2,0,0,0,54.9,34.9,5.11,5.11,0,0,0,54.72,33c0-.06,0-.06-.07-.12H56.7l1.92-1.43a2.69,2.69,0,0,0,1.54.5,2.79,2.79,0,1,0-2.78-2.79,3.29,3.29,0,0,0,.12.81l-1.42,1.11H53.6a9.09,9.09,0,0,0-3-2.35,6,6,0,0,0-1.24-3l5.39-6.25H61a2.82,2.82,0,0,0,2.6,1.86,2.79,2.79,0,0,0,0-5.58A2.82,2.82,0,0,0,61,17.56H53.91L48,24.44a5.69,5.69,0,0,0-3.09-.93,5.8,5.8,0,0,0-5,2.85,5.61,5.61,0,0,0-4.82-2.67,5.34,5.34,0,0,0-3,.87l-6.07-6.94H18.94a2.81,2.81,0,0,0-2.59-1.85,2.79,2.79,0,1,0,0,5.57,2.82,2.82,0,0,0,2.59-1.86h6.32l5.44,6.26a5.23,5.23,0,0,0-1.3,3.15,9.38,9.38,0,0,0-2.84,2.17H23.9l-1.43-1a3.27,3.27,0,0,0,.13-.81A2.79,2.79,0,1,0,19.81,32a2.73,2.73,0,0,0,1.55-.5l1.92,1.43h2.1c-.06.12-.06.18-.12.31a5,5,0,0,0-.19,1.92,11.61,11.61,0,0,0-1.36,4.15H19.56a2.79,2.79,0,1,0,.13,1.85h4a7.83,7.83,0,0,0,1.42,3.6,6.89,6.89,0,0,0-.49,2.72v.13H21.42L19.5,49a2.7,2.7,0,0,0-1.55-.5,2.79,2.79,0,1,0,2.79,2.79,3.13,3.13,0,0,0-.12-.8L22,49.45h2.85a4.4,4.4,0,0,0,1.3,2,5.45,5.45,0,0,0,3.34,1.36A6.19,6.19,0,0,0,31,55.52l-5.07,5.82H21a2.83,2.83,0,0,0-2.6-1.86,2.79,2.79,0,1,0,0,5.58A2.83,2.83,0,0,0,21,63.2h5.75l5.7-6.56a5.39,5.39,0,0,0,2.6.62,1.82,1.82,0,0,0,.61-.07,5.69,5.69,0,0,0,3.84-2.1,5.43,5.43,0,0,0,.5-.75l.37.56A6,6,0,0,0,44.2,57c.18,0,.43.06.61.06a5.6,5.6,0,0,0,2.48-.56l5.82,6.69h5.75a2.83,2.83,0,0,0,2.6,1.86,2.79,2.79,0,0,0,0-5.58,2.83,2.83,0,0,0-2.6,1.86H54L48.84,55.4a5.68,5.68,0,0,0,1.54-2.73,5.6,5.6,0,0,0,3.35-1.36A4.88,4.88,0,0,0,55,49.45h3l1.43,1.06a3.11,3.11,0,0,0-.13.8A2.79,2.79,0,1,0,62,48.52a2.73,2.73,0,0,0-1.55.5L58.55,47.6H55.34v-.31a6.69,6.69,0,0,0-.5-2.73,7.79,7.79,0,0,0,1.36-3.47h4.09a2.73,2.73,0,0,0,2.66,2,2.79,2.79,0,0,0,0-5.58ZM38.25,54.1A4.05,4.05,0,0,1,31.94,49a3.83,3.83,0,0,1,2.17-1.36,7.21,7.21,0,0,0,2.66,3,.91.91,0,0,0,.43.13.84.84,0,0,0,.44-1.55c-.19-.13-4-2.36-1.68-7.12a.83.83,0,1,0-1.48-.75,7.53,7.53,0,0,0-.81,4.65,5.71,5.71,0,0,0-3,1.92,5.6,5.6,0,0,0-1.23,3.22,3.76,3.76,0,0,1-2.11-.93,3.72,3.72,0,0,1-1-2.85,4.08,4.08,0,0,1,1.42-3.47,2.75,2.75,0,0,1,2-.56.77.77,0,0,0,1-.12.86.86,0,0,0,0-1.18c-.62-.62-2-.49-3-.06a4.74,4.74,0,0,0-1.6,1.12,7,7,0,0,1-.31-5.64,2.25,2.25,0,0,0,.43.68,4.66,4.66,0,0,0-.12,2.11v.06a.84.84,0,0,0,.61.8H27a.79.79,0,0,0,.8-.61,1.19,1.19,0,0,0,0-.5c-.12-.56-.43-2.35,3-3.84a.85.85,0,0,0-.69-1.55,9,9,0,0,0-2.9,2,3.74,3.74,0,0,1-.31-2.91,1.84,1.84,0,0,1,.37-.8h.12v-.25a6.75,6.75,0,0,1,2.11-1.92,5.73,5.73,0,0,0,5.07,4.4,5.11,5.11,0,0,0,1.05,2,.79.79,0,0,0,.62.25.67.67,0,0,0,.56-.25.8.8,0,0,0,0-1.17c-1.3-1.37-.5-4-.43-4a.83.83,0,0,0-.5-1,.82.82,0,0,0-1.05.49,9.56,9.56,0,0,0-.37,2,4.07,4.07,0,0,1-3.41-4,4,4,0,0,1,8.05-.12V51.12A3.66,3.66,0,0,1,38.25,54.1ZM52.24,42c-1.05-.43-2.47-.56-3,.06a.86.86,0,0,0,0,1.18.84.84,0,0,0,1,.12,3.14,3.14,0,0,1,2,.56,4.06,4.06,0,0,1,1.42,3.47,4.08,4.08,0,0,1-1,2.85,3.86,3.86,0,0,1-2.1.92A5.62,5.62,0,0,0,46.36,46a7.89,7.89,0,0,0-.8-4.65A.78.78,0,0,0,44.44,41a.77.77,0,0,0-.37,1.11c2.29,4.77-1.48,7.06-1.67,7.13a.82.82,0,0,0-.31,1.11.93.93,0,0,0,.74.43,1.21,1.21,0,0,0,.44-.12,7.71,7.71,0,0,0,2.66-3A3.8,3.8,0,0,1,48.09,49a4.05,4.05,0,1,1-7.17,2.1V29.2a4,4,0,1,1,4.64,4.15,6.87,6.87,0,0,0-.37-2,.79.79,0,0,0-1.06-.49.77.77,0,0,0-.49,1.05s.86,2.6-.43,4a.86.86,0,0,0,0,1.18.77.77,0,0,0,.55.25.81.81,0,0,0,.62-.25,4,4,0,0,0,1-2,5.73,5.73,0,0,0,5.08-4.39,6.6,6.6,0,0,1,2.1,1.92V33h.25a1.92,1.92,0,0,1,.25.62,4.16,4.16,0,0,1-.31,2.91,8.94,8.94,0,0,0-2.91-2,.83.83,0,0,0-1.11.43.84.84,0,0,0,.43,1.12c3.46,1.48,3.09,3.28,3,3.84a1.33,1.33,0,0,0,0,.49A.85.85,0,0,0,53,41h.19a.8.8,0,0,0,.62-.8v-.07a4,4,0,0,0-.13-2.1,3.87,3.87,0,0,0,.38-.68A7,7,0,0,1,53.79,43,4,4,0,0,0,52.24,42Z" transform="translate(-1.93 -1.18)"/></svg>