<svg xmlns="http://www.w3.org/2000/svg" xmlns:xlink="http://www.w3.org/1999/xlink" width="279.139" height="218" viewBox="0 0 279.139 218">
  <defs>
    <clipPath id="clip-path">
      <rect id="Rectangle_18" data-name="Rectangle 18" width="23.975" height="24" fill="#fff"/>
    </clipPath>
    <clipPath id="clip-path-2">
      <rect id="Rectangle_19" data-name="Rectangle 19" width="27.052" height="24" fill="#fff"/>
    </clipPath>
    <clipPath id="clip-path-3">
      <rect id="Rectangle_20" data-name="Rectangle 20" width="24.058" height="24" fill="#fff"/>
    </clipPath>
    <clipPath id="clip-path-4">
      <rect id="Rectangle_21" data-name="Rectangle 21" width="23.945" height="24" fill="#fff"/>
    </clipPath>
    <clipPath id="clip-path-5">
      <rect id="Rectangle_22" data-name="Rectangle 22" width="22.512" height="25.44" transform="translate(0.09)" fill="#7ec8e3"/>
    </clipPath>
    <clipPath id="clip-path-6">
      <rect id="Rectangle_23" data-name="Rectangle 23" width="20" height="20" transform="translate(0 0.183)" fill="#fff"/>
    </clipPath>
    <clipPath id="clip-path-13">
      <rect id="Rectangle_30" data-name="Rectangle 30" width="22.512" height="25.44" transform="translate(0.09)" fill="#fff"/>
    </clipPath>
  </defs>
  <g id="Group_166" data-name="Group 166" transform="translate(-728 -1371)">
    <g id="Industries_Section_Icons-1" data-name="Industries Section Icons-1" transform="translate(733 1416)" clip-path="url(#clip-path)">
      <path id="Path_1017" data-name="Path 1017" d="M0,5.631c.108-.485.176-.982.331-1.451A6.118,6.118,0,1,1,.043,6.842,1.536,1.536,0,0,0,0,6.662ZM4.624,5.4V6.878h3.03V5.4ZM7.363,3.985A6,6,0,0,0,6.131,1.767,6.014,6.014,0,0,0,4.916,3.985ZM7.35,8.309H4.921a6.025,6.025,0,0,0,1.218,2.185A6.061,6.061,0,0,0,7.35,8.309Zm-4.162-2.9H1.445V6.876H3.188Zm5.9-.006V6.878h1.732V5.408Zm-5.7-1.43.927-2.2a4.762,4.762,0,0,0-2.385,2.2Zm0,4.33H1.969a4.338,4.338,0,0,0,2.339,2.159Zm4.57-6.526.923,2.2h1.449a4.758,4.758,0,0,0-2.371-2.2Zm-.039,8.7A4.63,4.63,0,0,0,10.335,8.3c-.493,0-.939-.005-1.381.006a.232.232,0,0,0-.168.133,9.6,9.6,0,0,1-.864,2.048Z" fill="#7ec8e3"/>
      <path id="Path_1018" data-name="Path 1018" d="M21.275,24c-.483-.267-.965-.537-1.45-.8-.645-.349-1.29-.7-1.941-1.033a.962.962,0,0,0-.42-.105c-1.444-.007-2.888,0-4.332,0h-.3v-8.7H23.977v8.693H22.922L23.9,24Zm-7.037-9.233v5.885h.3c1.093,0,2.186,0,3.279,0a1,1,0,0,1,.438.112c1.021.538,2.036,1.087,3.053,1.632.07.038.145.067.262.121l-.954-1.878h1.953V14.768Z" fill="#7ec8e3"/>
      <path id="Path_1019" data-name="Path 1019" d="M10.472,20.213v1.406h-.4a16.914,16.914,0,0,1-2.058-.04,2.948,2.948,0,0,1-2.559-2.969c-.008-.664,0-1.327,0-1.991v-.306l-1.3,1.014-.868-1.1,1.44-1.134L6.158,13.97l2.872,2.254c-.29.369-.567.723-.866,1.1L6.869,16.317c-.006.1-.013.15-.013.2,0,.679-.005,1.358,0,2.038a1.577,1.577,0,0,0,1.668,1.656C9.165,20.215,9.8,20.213,10.472,20.213Z" fill="#7ec8e3"/>
      <path id="Path_1020" data-name="Path 1020" d="M14.962,7.784l.867-1.1,1.262.983c.021-.024.039-.035.039-.046,0-.773.031-1.547-.006-2.316A1.538,1.538,0,0,0,15.5,3.8c-.57,0-1.14,0-1.71,0h-.271V2.427c.014-.01.026-.027.039-.027a20.181,20.181,0,0,1,2.408.028,2.933,2.933,0,0,1,2.567,2.981c.007.656,0,1.315,0,1.968V7.7l1.309-1.015.867,1.1L17.84,10.037Z" fill="#7ec8e3"/>
    </g>
    <g id="Industries_Section_Icons-2" data-name="Industries Section Icons-2" transform="translate(767 1416)" clip-path="url(#clip-path-2)">
      <path id="Path_1021" data-name="Path 1021" d="M0,7.757a1.034,1.034,0,0,1,1.089-.642c4.974.012,9.949,0,14.924.008a4.187,4.187,0,0,1,4.19,3.424,13.847,13.847,0,0,1,.123,1.638h.57c.361,0,.722-.006,1.084,0a.835.835,0,0,1,.845.836q.011,2.531,0,5.062a.828.828,0,0,1-.857.85c-.545.007-1.09,0-1.677,0,0,.3,0,.581,0,.867a4.233,4.233,0,0,1-3.608,4.152.937.937,0,0,0-.145.048H.634A1.155,1.155,0,0,1,0,23.366ZM18.6,12.14v-.662a2.537,2.537,0,0,0-2.669-2.666H1.712V22.305c.056,0,.092.007.127.007q7.105,0,14.211,0a2.454,2.454,0,0,0,.676-.093,2.693,2.693,0,0,0,1.838-3.279c-.286,0-.576,0-.864,0a3.39,3.39,0,0,1-3.315-3.053A3.347,3.347,0,0,1,16.959,12.3,12.3,12.3,0,0,1,18.6,12.14Zm2.531,1.738H17.842a1.689,1.689,0,1,0,0,3.373c1.019,0,2.023,0,3.035,0h.255Z" fill="#7ec8e3"/>
      <path id="Path_1022" data-name="Path 1022" d="M27.052,7.124H25.37a5.443,5.443,0,0,0-1.608-3.843,5.382,5.382,0,0,0-3.831-1.6V0a5.926,5.926,0,0,1,2.224.356A7.049,7.049,0,0,1,27,6.34c.01.07.031.135.047.2Z" fill="#7ec8e3"/>
      <path id="Path_1023" data-name="Path 1023" d="M24.124,7.115H22.465a2.6,2.6,0,0,0-2.542-2.542V2.945A4.155,4.155,0,0,1,24.124,7.115Z" fill="#7ec8e3"/>
      <path id="Path_1024" data-name="Path 1024" d="M9.3,19.8v.8h-1.7v-.8c-1.62-.269-2.583-1.244-2.523-2.542H6.739c.163.634.414.827,1.085.827.476,0,.951,0,1.426,0a.845.845,0,1,0,0-1.687,17.224,17.224,0,0,1-2.03-.049A2.479,2.479,0,0,1,5.077,13.72,2.549,2.549,0,0,1,7.45,11.347l.156-.015v-.82H9.288v.819a2.59,2.59,0,0,1,1.991.968,2.5,2.5,0,0,1,.554,1.55H10.238c-.157-.233-.256-.506-.452-.634a1.6,1.6,0,0,0-.744-.178c-.465-.026-.933-.01-1.4-.006a.843.843,0,1,0,0,1.685c.564.006,1.127,0,1.691,0A2.528,2.528,0,0,1,9.914,19.7C9.727,19.75,9.533,19.766,9.3,19.8Z" fill="#7ec8e3"/>
      <path id="Path_1025" data-name="Path 1025" d="M18.576,16.405a.852.852,0,1,1,.6-.231A.845.845,0,0,1,18.576,16.405Z" fill="#7ec8e3"/>
    </g>
    <g id="Industries_Section_Icons-3" data-name="Industries Section Icons-3" transform="translate(805 1416)" clip-path="url(#clip-path-3)">
      <path id="Path_1026" data-name="Path 1026" d="M24.058,14.2v1.219a1.754,1.754,0,0,0-.041.2A8.883,8.883,0,0,1,22.45,19.9a.373.373,0,0,0-.033.421c.543,1.21,1.079,2.423,1.616,3.634a2.438,2.438,0,0,1-.242-.078c-1.149-.507-2.3-1.014-3.446-1.529a.337.337,0,0,0-.376.035,8.72,8.72,0,0,1-3.014,1.354c-.492.114-1,.175-1.5.259H14.238c-.262-.036-.527-.06-.787-.108A9.09,9.09,0,0,1,6.27,18.017a.518.518,0,0,0-.3-.291c-.616-.3-1.231-.606-1.831-.94a.471.471,0,0,0-.484-.043c-1.2.544-2.413,1.073-3.621,1.606.027-.081.048-.164.081-.241q.761-1.722,1.532-3.439a.335.335,0,0,0-.036-.376A8.883,8.883,0,0,1,.2,11.054C.115,10.637.067,10.212,0,9.79V8.571a1.308,1.308,0,0,0,.039-.18A8.492,8.492,0,0,1,1.523,4.152,8.875,8.875,0,0,1,10.6.121a8.855,8.855,0,0,1,7.17,5.808.527.527,0,0,0,.321.326,9.059,9.059,0,0,1,5.739,6.566C23.939,13.271,23.983,13.738,24.058,14.2Zm-2.846,7,.035-.043a7.976,7.976,0,0,0-.364-.809.64.64,0,0,1,.1-.821,7.382,7.382,0,0,0,1.267-7.136,7.775,7.775,0,0,0-15.14,2.041,7.539,7.539,0,0,0,2.222,5.826,7.634,7.634,0,0,0,10.295.64.565.565,0,0,1,.722-.082C20.621,20.965,20.925,21.068,21.212,21.2ZM5.77,16.172A9.219,9.219,0,0,1,16.15,5.74c-.044-.09-.08-.167-.12-.241A7.741,7.741,0,0,0,3.759,3.634,7.511,7.511,0,0,0,1.47,10.087a7.558,7.558,0,0,0,1.749,4,.333.333,0,0,1,.05.417c-.166.338-.309.689-.49,1.1.407-.179.752-.318,1.086-.481a.364.364,0,0,1,.439.046C4.761,15.5,5.248,15.816,5.77,16.172Z" fill="#7ec8e3"/>
      <path id="Path_1027" data-name="Path 1027" d="M16.332,16.443a7.564,7.564,0,0,1-1.138.431,2.074,2.074,0,0,1-2.424-1.711,2.109,2.109,0,0,1,4.15-.752,3.1,3.1,0,0,1,.041.372.707.707,0,1,0,1.41-.043,3.524,3.524,0,1,0-1.992,3.233l.231-.115.7,1.207a4.535,4.535,0,0,1-1.768.615,4.921,4.921,0,1,1,4.174-5.644,2.676,2.676,0,0,1-.175,1.74,2.118,2.118,0,0,1-3.061.777Zm-.78-1.638a.712.712,0,1,0-.2.494.712.712,0,0,0,.2-.494Z" fill="#7ec8e3"/>
    </g>
    <g id="Industries_Section_Icons-4" data-name="Industries Section Icons-4" transform="translate(840 1416)">
      <path id="Path_1028" data-name="Path 1028" d="M24.034,14.617v.376a.882.882,0,0,1-.945.521c-.563-.024-1.127-.006-1.69-.006h-.218v1.405c.644,0,1.276.018,1.906-.006a.882.882,0,0,1,.944.522V17.8a.882.882,0,0,1-.946.521c-.563-.024-1.127-.006-1.69-.006h-.229c0,.717,0,1.4,0,2.075a.705.705,0,0,1-.739.735c-.2,0-.391,0-.586,0h-1.49v2.1a.7.7,0,1,1-1.406.007c0-.616,0-1.233,0-1.849v-.245H15.537c0,.72.005,1.422,0,2.124a.7.7,0,0,1-.712.715.708.708,0,0,1-.693-.711c0-.133,0-.265,0-.4V21.144H12.723v2.071a.707.707,0,1,1-1.407,0V21.365c0-.075-.006-.15-.01-.225H9.9v.265c0,.626.005,1.249,0,1.873a.7.7,0,1,1-1.4,0c-.007-.414,0-.827,0-1.241v-.888H7.093v2.074a.706.706,0,1,1-1.407-.008V21.129c-.708,0-1.381.013-2.052-.009a.824.824,0,0,1-.525-.194.911.911,0,0,1-.228-.557c-.027-.676-.011-1.353-.011-2.052-.655,0-1.287-.018-1.918.006A.885.885,0,0,1,.006,17.8v-.375a.881.881,0,0,1,.945-.521c.563.024,1.127.006,1.69.006h.218v-1.4c-.644,0-1.276-.018-1.906.006A.891.891,0,0,1,0,14.992v-.376A.882.882,0,0,1,.945,14.1c.563.025,1.127.006,1.69.006h.218V12.7c-.644,0-1.276-.017-1.906.006A.885.885,0,0,1,0,12.181v-.376a.881.881,0,0,1,.945-.521c.563.025,1.127.006,1.69.006h.218V9.885c-.644,0-1.276-.018-1.906.006A.885.885,0,0,1,.005,9.37V8.995A.881.881,0,0,1,.95,8.473c.563.024,1.127.006,1.69.006h.218V7.073c-.644,0-1.276-.018-1.906.006a.885.885,0,0,1-.945-.521V6.182a.881.881,0,0,1,.946-.521c.563.024,1.127.006,1.69.006h.229V3.6a.706.706,0,0,1,.575-.724,1.5,1.5,0,0,1,.28-.013H5.688c0-.655.018-1.285-.006-1.915A.867.867,0,0,1,6.2,0h.376a.881.881,0,0,1,.523.943c-.025.563-.006,1.123-.006,1.684v.218H8.5c0-.643.018-1.273-.006-1.9A.882.882,0,0,1,9.013,0h.376a.881.881,0,0,1,.523.943C9.886,1.507,9.9,2.066,9.9,2.627v.218h1.408c0-.643.018-1.273-.006-1.9A.882.882,0,0,1,11.829,0H12.2a.881.881,0,0,1,.523.943c-.025.563-.006,1.123-.006,1.684v.218H14.13c0-.643.018-1.273-.006-1.9A.882.882,0,0,1,14.646,0h.376a.88.88,0,0,1,.523.943c-.025.563-.006,1.123-.006,1.684v.218h1.408c0-.643.018-1.273-.006-1.9A.882.882,0,0,1,17.462,0h.376a.881.881,0,0,1,.523.944c-.025.563-.006,1.127-.006,1.685v.229h2.078a.7.7,0,0,1,.738.736V5.669c.656,0,1.288.018,1.918-.006a.883.883,0,0,1,.945.522V6.56a.881.881,0,0,1-.945.521c-.563-.024-1.127-.006-1.69-.006H21.18V8.481c.644,0,1.276.018,1.906-.006A.881.881,0,0,1,24.031,9v.376a.882.882,0,0,1-.945.521c-.563-.024-1.127-.006-1.69-.006h-.218v1.4c.644,0,1.276.018,1.906-.006a.881.881,0,0,1,.944.521v.375a.882.882,0,0,1-.945.521c-.563-.024-1.127-.006-1.69-.006h-.219V14.1c.644,0,1.276.018,1.906-.006A.892.892,0,0,1,24.034,14.617ZM4.288,4.274V19.705h15.46V4.274Z" fill="#7ec8e3"/>
      <path id="Path_1029" data-name="Path 1029" d="M12.017,18.318H6.528c-.583,0-.848-.262-.848-.839V6.5a.727.727,0,0,1,.834-.829h11a.728.728,0,0,1,.837.827v11a.725.725,0,0,1-.823.818Zm-.7-1.419V13.467a.722.722,0,0,1,.408-.707c.928-.466,1.856-.933,2.791-1.384a.849.849,0,0,1,.474-.062.664.664,0,0,1,.547.6.71.71,0,0,1-.414.724q-1.1.555-2.2,1.1a.3.3,0,0,0-.2.313c.009.882,0,1.764.005,2.647,0,.068.008.135.013.2h1.4c0-.7-.006-1.391,0-2.077a.7.7,0,0,1,1.064-.61.713.713,0,0,1,.34.653v2.037h1.39V9.881c-.705,0-1.393.007-2.081,0a.7.7,0,0,1-.611-1.064.715.715,0,0,1,.654-.339c.678,0,1.356,0,2.041,0V7.092H12.721c0,1.149,0,2.281,0,3.413a.739.739,0,0,1-.419.725c-.921.461-1.842.925-2.77,1.373a.882.882,0,0,1-.474.068.672.672,0,0,1-.558-.586.7.7,0,0,1,.4-.73q1.109-.56,2.224-1.1a.285.285,0,0,0,.188-.3c-.009-.89,0-1.78-.005-2.67,0-.067-.009-.133-.013-.193H9.9V9.133A.7.7,0,1,1,8.5,9.138c0-.609,0-1.218,0-1.827,0-.075-.006-.15-.01-.218H7.1V14.1H9.153a.7.7,0,1,1,0,1.4c-.61,0-1.22,0-1.831,0-.075,0-.15.007-.225.011V16.9Z" fill="#7ec8e3"/>
    </g>
    <g id="Industries_Section_Icons-5" data-name="Industries Section Icons-5" transform="translate(875 1416)" clip-path="url(#clip-path-4)">
      <path id="Path_1030" data-name="Path 1030" d="M23.945,3.375V7.359a3.3,3.3,0,0,1-.5,1.271,2.785,2.785,0,0,1-2.285,1.211c-.3.008-.6,0-.91,0v.316c0,1.937.014,3.873-.008,5.809a9.881,9.881,0,0,1-.179,1.787,7.836,7.836,0,0,1-5.537,5.93c-.545.145-1.113.212-1.669.313h-.983c-.352-.052-.712-.079-1.059-.158A7.743,7.743,0,0,1,5.2,19.273c-.184-.41-.362-.685-.843-.635a.636.636,0,0,1-.161-.03,5,5,0,0,1-4.157-4.37,6.832,6.832,0,0,1,1.578-5.1A29.673,29.673,0,0,0,3.781,6.387,8.972,8.972,0,0,0,4.933,3.766a9.413,9.413,0,0,0,.158-2.213.351.351,0,0,1,.047-.215C5.527.9,5.925.475,6.36,0c.977.97,1.965,1.9,2.9,2.885a21.421,21.421,0,0,1,3.394,4.57,9.649,9.649,0,0,1,1.188,6.653,6.717,6.717,0,0,1-1.6,3.353A5.856,5.856,0,0,1,8.385,19.26c-.342.035-.686.046-1.044.068a5.774,5.774,0,0,0,1.9,1.882,5.7,5.7,0,0,0,6.083.117,5.812,5.812,0,0,0,3.053-5.357c.012-1.952,0-3.905,0-5.859V9.844h-.651a2.811,2.811,0,0,1-2.9-2.914V3.372h1.871V0h1.871V3.359h1.872V0h1.872V3.375ZM9.746,6.328l-.071.033a9.716,9.716,0,0,1-.983,3.708c-.517,1.11-1.061,2.207-1.569,3.32a6.045,6.045,0,0,0-.64,3.721c.035.182.1.248.268.273a5.919,5.919,0,0,0,1.886-.045,3.665,3.665,0,0,0,2.624-1.658,6.369,6.369,0,0,0,.813-4.259,8.825,8.825,0,0,0-1.2-3.3C10.522,7.508,10.123,6.923,9.746,6.328Zm-5.2,10.433v-.133a7.043,7.043,0,0,1,.586-3.309c.459-1.074,1-2.116,1.465-3.185.352-.8.7-1.615.976-2.45a4.269,4.269,0,0,0-.113-3.112c-.149-.341-.352-.66-.527-.988l-.062.026A9.208,9.208,0,0,1,5.311,7.458,31.215,31.215,0,0,1,3.367,9.943a5.825,5.825,0,0,0-1.44,2.889,3.215,3.215,0,0,0,1.042,3.2A3.077,3.077,0,0,0,4.547,16.761ZM16.7,5.259c0,.629-.016,1.238.005,1.845a.886.886,0,0,0,.865.856q1.812.023,3.624,0a.861.861,0,0,0,.859-.781c.038-.635.01-1.274.01-1.921Z" fill="#7ec8e3"/>
    </g>
    <g id="Industries_Section_Icons" data-name="Industries Section Icons" transform="translate(913.178 1416)" clip-path="url(#clip-path-5)">
      <path id="Path_1031" data-name="Path 1031" d="M6.169,31.635,4.4,29.786Q2.347,27.65.291,25.52a1.238,1.238,0,0,0-.2-.145l3.378-3.51.949,1.052c.1-.1.164-.157.224-.22.895-.933,1.792-1.862,2.678-2.8a.578.578,0,0,1,.209-.15.558.558,0,0,1,.25-.043q2.152.011,4.3,0a3.577,3.577,0,0,1,3.447,2.133c.018.035.04.069.077.132l3.573-4.947L22.6,19.688a1.479,1.479,0,0,1-.083.149q-2.582,3.578-5.158,7.155a.363.363,0,0,1-.34.164q-4.076,0-8.152,0H8.613l-.033.056.986.923c-.316.32-.579.583-.838.851Q7.552,30.2,6.379,31.427c-.06.063-.109.137-.163.205ZM14.3,22.686a1.2,1.2,0,0,0-.044-.156A2.09,2.09,0,0,0,12.264,21.2c-1.331-.012-2.662-.006-3.993,0a.445.445,0,0,0-.287.126c-.8.826-1.6,1.661-2.4,2.494-.038.04-.071.085-.1.114L7.5,26.022a.412.412,0,0,0,.1-.082.666.666,0,0,1,.639-.278c2.686.009,5.372,0,8.057.01a.4.4,0,0,0,.212-.044.415.415,0,0,0,.161-.15q1.893-2.638,3.8-5.267c.048-.065.088-.133.143-.214l-1.139-.888-3.646,5.056H9.728V22.686ZM7.428,28.175l-4-4.159L2.183,25.308l4,4.159Z" transform="translate(0 -6.195)" fill="#7ec8e3"/>
      <path id="Path_1032" data-name="Path 1032" d="M18.091,0a3.315,3.315,0,0,1,1.414.617A2.974,2.974,0,0,1,20.469,2a3.087,3.087,0,0,1,.068,1.71,3,3,0,0,1-.849,1.466,2.821,2.821,0,0,1-1.486.738.8.8,0,0,0-.088.032,2.18,2.18,0,0,0,.229.058A4.42,4.42,0,0,1,22,9.884a20.621,20.621,0,0,1,.011,2.121H13.485c-.152-1.856.025-3.6,1.482-4.927a4.125,4.125,0,0,1,2.194-1.066c.055-.008.109-.02.164-.034.013,0,.022-.02.044-.041a2.875,2.875,0,0,1-2.094-1.48A3,3,0,0,1,17.288.045.881.881,0,0,0,17.422,0Zm2.541,10.518a3.094,3.094,0,0,0-1.458-2.643,2.5,2.5,0,0,0-2.847.013,3.1,3.1,0,0,0-1.437,2.63ZM19.191,2.992a1.518,1.518,0,0,0-.42-1.04,1.394,1.394,0,0,0-2.009-.017,1.516,1.516,0,0,0-.436,1.033,1.483,1.483,0,0,0,1.422,1.5,1.414,1.414,0,0,0,1.012-.431A1.527,1.527,0,0,0,19.191,2.992Z" transform="translate(-5.179)" fill="#7ec8e3"/>
    </g>
    <g id="Field_of_Expertise_Icon_Set_-_24_px-1" data-name="Field of Expertise Icon Set - 24 px-1" transform="translate(729.534 1472)">
      <path id="Path_1033" data-name="Path 1033" d="M11.684,13.184c-.345-.729-.685-1.435-1.024-2.145.243-.187.491-.357.715-.552A9.129,9.129,0,0,0,13.4,7.612a3.363,3.363,0,0,1,.181-.371,3.3,3.3,0,0,1,.285-.331,1.52,1.52,0,0,1,.29.319c.535,1.1,1.056,2.2,1.582,3.308.382.8.767,1.6,1.14,2.4.044.1.069.262.015.322a.425.425,0,0,1-.322.046c-.669-.117-1.332-.276-2.005-.367A5.887,5.887,0,0,0,11.684,13.184Z" fill="blue"/>
      <path id="Path_1034" data-name="Path 1034" d="M6.474,5.766,9.411,8.7a2.5,2.5,0,0,1,.2.207.491.491,0,0,1-.035.679.477.477,0,0,1-.677,0c-.27-.253-.527-.521-.789-.783C7.392,8.1,6.675,7.388,5.968,6.671a.337.337,0,0,0-.437-.1,1.752,1.752,0,0,1-1.948-.345,1.774,1.774,0,0,1-.532-1.909,1.721,1.721,0,0,1,1.457-1.3,1.786,1.786,0,0,1,1.784.642,1.791,1.791,0,0,1,.284,1.873C6.55,5.6,6.514,5.673,6.474,5.766Z" fill="blue"/>
      <path id="Path_1035" data-name="Path 1035" d="M21.034,19.25a1.81,1.81,0,0,1-1.148,1.638,1.863,1.863,0,0,1-2.036-.389,1.828,1.828,0,0,1-.418-2.025.332.332,0,0,0-.089-.438c-.849-.834-1.688-1.68-2.529-2.522a1.978,1.978,0,0,1-.177-.188.492.492,0,0,1,.695-.69c.138.115.262.249.39.377.769.768,1.541,1.533,2.3,2.309a.353.353,0,0,0,.457.106A1.868,1.868,0,0,1,21.034,19.25Z" fill="blue"/>
      <path id="Path_1036" data-name="Path 1036" d="M7.867,12.418c-.2-.454-.2-.455.211-.65s.81-.382,1.21-.582c.2-.1.316-.056.411.144q.565,1.2,1.147,2.4c.109.224.016.338-.2.43.094.2.182.395.273.587l.552,1.166c.25.528.17.914-.231,1.109s-.759.021-1.011-.506l-.834-1.744c-.317.175-.441-.023-.533-.311-.163.078-.306.15-.451.216a1.136,1.136,0,1,1-.976-2.051C7.574,12.56,7.713,12.495,7.867,12.418Z" fill="blue"/>
      <path id="Path_1037" data-name="Path 1037" d="M11.495,4.855c0-.31-.011-.621,0-.93a.294.294,0,0,0-.223-.335A1.815,1.815,0,0,1,10.131,1.8a1.874,1.874,0,0,1,3.609-.627,1.838,1.838,0,0,1-.969,2.4A.389.389,0,0,0,12.495,4c.013.621.008,1.242,0,1.863a.493.493,0,0,1-.422.56.5.5,0,0,1-.582-.533V5.84Z" fill="blue"/>
      <path id="Path_1038" data-name="Path 1038" d="M19.453,12.506c-.233,0-.466.006-.7,0a.5.5,0,0,1-.542-.5.493.493,0,0,1,.538-.5q.673-.015,1.345,0a.268.268,0,0,0,.3-.195,1.851,1.851,0,0,1,2.085-1.15,1.876,1.876,0,0,1,0,3.682,1.847,1.847,0,0,1-2.08-1.116.29.29,0,0,0-.337-.221C19.867,12.516,19.66,12.506,19.453,12.506Z" fill="blue"/>
      <path id="Path_1039" data-name="Path 1039" d="M1.869,10.116a1.846,1.846,0,0,1,1.725,1.153.309.309,0,0,0,.357.231c.4-.014.793-.008,1.19,0,.368,0,.6.2.6.5s-.231.5-.6.5c-.405,0-.811.009-1.216,0a.281.281,0,0,0-.319.207,1.869,1.869,0,0,1-3.147.513,1.875,1.875,0,0,1,1.006-3.054A3.837,3.837,0,0,1,1.869,10.116Z" fill="blue"/>
      <path id="Path_1040" data-name="Path 1040" d="M5.783,17.524c.361-.364.725-.741,1.1-1.1a.493.493,0,0,1,.849.181.5.5,0,0,1-.163.537L6.48,18.219a1.924,1.924,0,0,1-.633,2.524,1.877,1.877,0,0,1-2.581-2.606A1.928,1.928,0,0,1,5.783,17.524Z" fill="blue"/>
      <path id="Path_1041" data-name="Path 1041" d="M11.495,20.307c0-.469-.008-.925,0-1.38a.487.487,0,0,1,.764-.45.753.753,0,0,1,.228.483,8.887,8.887,0,0,1,.007,1.112.3.3,0,0,0,.224.337,1.848,1.848,0,0,1,1.143,1.95,1.876,1.876,0,1,1-2.746-1.877C11.232,20.422,11.353,20.371,11.495,20.307Z" fill="blue"/>
      <path id="Path_1042" data-name="Path 1042" d="M17.533,5.792a1.878,1.878,0,1,1,3.161.128,1.922,1.922,0,0,1-2.5.536c-.166.184-.345.393-.536.588a.492.492,0,0,1-.732.056.505.505,0,0,1,.027-.753C17.139,6.158,17.337,5.979,17.533,5.792Z" fill="blue"/>
      <path id="Path_1043" data-name="Path 1043" d="M15.662,8.042a1.694,1.694,0,0,1,1.623.925,1.734,1.734,0,0,1-.234,1.98Z" fill="blue"/>
      <path id="Path_1044" data-name="Path 1044" d="M3.046,8.69a.5.5,0,0,1,.488.5.483.483,0,0,1-.515.492.5.5,0,0,1-.483-.507.512.512,0,0,1,.511-.484Z" fill="blue"/>
      <path id="Path_1045" data-name="Path 1045" d="M21.461,9.193a.5.5,0,1,1-.85-.353.505.505,0,0,1,.36-.15.511.511,0,0,1,.491.5Z" fill="blue"/>
      <path id="Path_1046" data-name="Path 1046" d="M21.463,14.8a.5.5,0,1,1-.157-.34A.5.5,0,0,1,21.463,14.8Z" fill="blue"/>
      <path id="Path_1047" data-name="Path 1047" d="M16.347,20.815a.491.491,0,0,1-.5-.488.5.5,0,1,1,1,.007.489.489,0,0,1-.5.481Z" fill="blue"/>
      <path id="Path_1048" data-name="Path 1048" d="M9.682,3.05a.483.483,0,0,1-.5.483.5.5,0,0,1-.5-.492.508.508,0,0,1,.514-.5.495.495,0,0,1,.477.511Z" fill="blue"/>
      <path id="Path_1049" data-name="Path 1049" d="M4.18,7.644a.509.509,0,0,1-.487.505.49.49,0,0,1-.507-.477.5.5,0,0,1,.493-.52.512.512,0,0,1,.5.492Z" fill="blue"/>
      <path id="Path_1050" data-name="Path 1050" d="M20.312,7.152a.506.506,0,0,1,.51.5.5.5,0,0,1-1,0,.509.509,0,0,1,.489-.5Z" fill="blue"/>
      <path id="Path_1051" data-name="Path 1051" d="M3.675,15.849a.511.511,0,0,1,.5.493.492.492,0,0,1-.674.469.5.5,0,0,1,.177-.961Z" fill="blue"/>
      <path id="Path_1052" data-name="Path 1052" d="M20.311,16.845a.5.5,0,0,1-.483-.505.51.51,0,0,1,.5-.491.5.5,0,0,1,.493.521.493.493,0,0,1-.511.476Z" fill="blue"/>
      <path id="Path_1053" data-name="Path 1053" d="M7.653,20.815a.491.491,0,0,1-.5-.483.514.514,0,0,1,.487-.507.5.5,0,0,1,.511.5.483.483,0,0,1-.5.486Z" fill="blue"/>
      <path id="Path_1054" data-name="Path 1054" d="M14.8,2.541a.512.512,0,0,1,.511.483.5.5,0,0,1-.5.511.483.483,0,0,1-.49-.491.494.494,0,0,1,.482-.5Z" fill="blue"/>
      <path id="Path_1055" data-name="Path 1055" d="M7.671,3.19a.487.487,0,0,1,.478.5.507.507,0,0,1-.5.483.513.513,0,0,1-.493-.524.495.495,0,0,1,.52-.464Z" fill="blue"/>
      <path id="Path_1056" data-name="Path 1056" d="M16.348,4.18a.514.514,0,0,1-.493-.5.5.5,0,1,1,1,.012.51.51,0,0,1-.5.487Z" fill="blue"/>
      <path id="Path_1057" data-name="Path 1057" d="M3.031,15.311a.515.515,0,0,1-.492-.5.494.494,0,0,1,.52-.49.483.483,0,0,1,.475.5.505.505,0,0,1-.5.485Z" fill="blue"/>
      <path id="Path_1058" data-name="Path 1058" d="M9.682,20.968a.5.5,0,0,1-.492.5.514.514,0,0,1-.5-.519.5.5,0,0,1,.51-.475.483.483,0,0,1,.481.5Z" fill="blue"/>
      <path id="Path_1059" data-name="Path 1059" d="M15.312,20.968a.518.518,0,0,1-.5.5.5.5,0,0,1-.494-.519.491.491,0,0,1,.505-.479.506.506,0,0,1,.488.5Z" fill="blue"/>
    </g>
    <g id="Field_of_Expertise_Icon_Set_-_24_px-2" data-name="Field of Expertise Icon Set - 24 px-2" transform="translate(764.534 1472)">
      <path id="Path_1060" data-name="Path 1060" d="M18,12a6,6,0,1,0,6,6A6,6,0,0,0,18,12Zm0,11.143A5.143,5.143,0,1,1,23.144,18,5.143,5.143,0,0,1,18,23.143Z" fill="blue"/>
      <path id="Path_1061" data-name="Path 1061" d="M11.369,16.286A6.864,6.864,0,0,1,18,11.143V3.429H7.714V16.286ZM14.7,6.3A.429.429,0,0,1,15.3,5.7l1.714,1.714a.429.429,0,0,1,0,.606L15.3,9.732a.429.429,0,0,1-.606-.606l1.411-1.411ZM12.013,9.325,12.87,5.9A.429.429,0,0,1,13.7,6.1l-.857,3.429a.429.429,0,0,1-.416.324.414.414,0,0,1-.1-.013A.429.429,0,0,1,12.013,9.325ZM8.7,7.412,10.411,5.7a.429.429,0,0,1,.606.606L9.606,7.715l1.411,1.411a.429.429,0,1,1-.606.606L8.7,8.018A.429.429,0,0,1,8.7,7.412Z" fill="blue"/>
      <path id="Path_1062" data-name="Path 1062" d="M18,.429A.429.429,0,0,0,17.572,0H.429A.429.429,0,0,0,0,.429V2.571H18ZM1.714,1.714H1.286a.429.429,0,1,1,0-.857h.429a.429.429,0,1,1,0,.857Zm2.143,0H3.429a.429.429,0,1,1,0-.857h.429a.429.429,0,0,1,0,.857ZM6,1.714H5.572a.429.429,0,1,1,0-.857H6a.429.429,0,1,1,0,.857Z" fill="blue"/>
      <path id="Path_1063" data-name="Path 1063" d="M.429,16.286H6.857V3.429H0V15.858A.429.429,0,0,0,.429,16.286Zm3-11.143H5.572a.429.429,0,1,1,0,.857H3.429a.429.429,0,1,1,0-.857Zm0,1.714H5.572a.429.429,0,1,1,0,.857H3.429a.429.429,0,1,1,0-.857Zm0,1.714H5.572a.429.429,0,1,1,0,.857H3.429a.429.429,0,1,1,0-.857Zm0,1.714H5.572a.429.429,0,0,1,0,.857H3.429a.429.429,0,0,1,0-.857Zm0,1.714H5.572a.429.429,0,0,1,0,.857H3.429a.429.429,0,0,1,0-.857Zm0,1.714H5.572a.429.429,0,1,1,0,.857H3.429a.429.429,0,1,1,0-.857ZM1.286,5.143h.429a.429.429,0,1,1,0,.857H1.286a.429.429,0,1,1,0-.857Zm0,1.714h.429a.429.429,0,1,1,0,.857H1.286a.429.429,0,1,1,0-.857Zm0,1.714h.429a.429.429,0,1,1,0,.857H1.286a.429.429,0,1,1,0-.857Zm0,1.714h.429a.429.429,0,0,1,0,.857H1.286a.429.429,0,0,1,0-.857Zm0,1.714h.429a.429.429,0,0,1,0,.857H1.286a.429.429,0,0,1,0-.857Zm0,1.714h.429a.429.429,0,1,1,0,.857H1.286a.429.429,0,1,1,0-.857Z" fill="blue"/>
      <path id="Path_1064" data-name="Path 1064" d="M18,13.715A4.286,4.286,0,1,0,22.287,18,4.286,4.286,0,0,0,18,13.715Zm2.017,3.3-3,3a.429.429,0,0,1-.606,0l-.857-.857a.429.429,0,0,1,.606-.606l.554.554,2.7-2.7a.429.429,0,0,1,.606.606Z" fill="blue"/>
    </g>
    <g id="Field_of_Expertise_Icon_Set_-_24_px-3" data-name="Field of Expertise Icon Set - 24 px-3" transform="translate(799.534 1472)">
      <path id="Path_1065" data-name="Path 1065" d="M11.292,24c-.454-.062-.91-.113-1.362-.187a11.442,11.442,0,0,1-2.874-.888c.25-.391.5-.775.762-1.187a10.46,10.46,0,0,0,8.219.051,9.919,9.919,0,0,0,4.474-3.508,10.588,10.588,0,0,0,.734-11.505l1.215-.693c.25.557.536,1.088.733,1.649A11.728,11.728,0,0,1,21.011,19.89a11.485,11.485,0,0,1-7.6,4.022q-.358.046-.716.089Z" fill="blue"/>
      <path id="Path_1066" data-name="Path 1066" d="M12.7,0c.462.063.926.114,1.386.191a10.715,10.715,0,0,1,2.16.6L15.585,2C11.2.688,7.253,1.488,4.145,4.949S.666,12.4,2.446,16.671l-1.252.616C.98,16.727.756,16.2.573,15.654A10.928,10.928,0,0,1,.038,12.9,1.621,1.621,0,0,0,0,12.7V11.3a2.025,2.025,0,0,0,.041-.227A10.657,10.657,0,0,1,.673,8.058,11.834,11.834,0,0,1,9.975.18c.434-.086.876-.121,1.314-.18Z" fill="blue"/>
      <path id="Path_1067" data-name="Path 1067" d="M12.354,16.272c-1.39,0-2.78.013-4.17,0a3.726,3.726,0,0,1-.529-7.406c.148-.022.2-.062.231-.22a3.349,3.349,0,0,1,6.547-.327.246.246,0,0,0,.213.2,2.587,2.587,0,0,1,1.924,1.71.23.23,0,0,0,.23.177,2.94,2.94,0,0,1-.2,5.868H12.354Z" fill="blue"/>
      <path id="Path_1068" data-name="Path 1068" d="M20.908,3.042a2.037,2.037,0,1,1-.571-1.44A2.033,2.033,0,0,1,20.908,3.042Z" fill="blue"/>
      <path id="Path_1069" data-name="Path 1069" d="M4.58,22.552a2.03,2.03,0,1,1,.783-.148,2.041,2.041,0,0,1-.783.148Z" fill="blue"/>
    </g>
    <g id="Field_of_Expertise_Icon_Set_-_24_px-4" data-name="Field of Expertise Icon Set - 24 px-4" transform="translate(833.834 1472)">
      <path id="Path_1070" data-name="Path 1070" d="M.7,7.208Q6.621,3.631,12.541.049c.158-.1.256-.035.379.039Q18.107,3.223,23.3,6.356q.7.424,1.4.852V9.283q-2.41-1.446-4.818-2.9-3.321-2-6.639-4.014a.939.939,0,0,0-1.086,0Q6.567,5.763.965,9.135c-.087.052-.177.1-.265.148Z" fill="blue"/>
      <path id="Path_1071" data-name="Path 1071" d="M.7,22.066c.063,0,.125,0,.188,0H24.513c.063,0,.125,0,.188,0V24c-.086,0-.171-.011-.257-.011H.957C.871,23.99.785,24,.7,24Z" fill="blue"/>
      <path id="Path_1072" data-name="Path 1072" d="M9.311,20.551H3.248v-.262q0-5.271,0-10.542a.358.358,0,0,1,.2-.353Q7.985,6.66,12.519,3.914a.31.31,0,0,1,.375,0q4.533,2.745,9.073,5.48a.318.318,0,0,1,.191.309q-.008,5.318,0,10.637c0,.063-.005.123-.009.2h-6.06c0-.079-.01-.155-.01-.231q0-2.24,0-4.481a.469.469,0,0,1,.154-.369c.409-.4.8-.814,1.216-1.211a.4.4,0,0,1,.282-.1,1.51,1.51,0,0,0,.476-2.981,1.5,1.5,0,0,0-1.524.7,1.515,1.515,0,0,0-.2.554.9.9,0,0,0-.01.377.433.433,0,0,1-.164.467c-.476.465-.937.947-1.413,1.412a.985.985,0,0,0-.312.755c.007,1.611,0,3.223,0,4.835v.275H13.45v-.252q0-4.928,0-9.858a.414.414,0,0,1,.041-.208.409.409,0,0,1,.139-.16,1.509,1.509,0,0,0-.066-2.41,1.488,1.488,0,0,0-1.737.011,1.51,1.51,0,0,0-.037,2.411.342.342,0,0,1,.168.3q-.008,4.988,0,9.976v.193H10.825v-7a.771.771,0,0,0-.87-.886c-.164,0-.328,0-.492,0A1.166,1.166,0,0,1,8.417,12.3a1.418,1.418,0,0,0-2.087.116,1.507,1.507,0,0,0,.12,2.12,1.44,1.44,0,0,0,2.078-.094.775.775,0,0,1,.787-.252Z" fill="blue"/>
    </g>
    <g id="Field_of_Expertise_Icon_Set_-_24_px-5" data-name="Field of Expertise Icon Set - 24 px-5" transform="translate(868.834 1472)">
      <path id="Path_1073" data-name="Path 1073" d="M4.958,5.7.7,3.188V6.643L4.958,9.151Z" fill="blue"/>
      <path id="Path_1074" data-name="Path 1074" d="M9.607,2.509,5.345,0,1.084,2.509,5.345,5.018Z" fill="blue"/>
      <path id="Path_1075" data-name="Path 1075" d="M8.055,14.068l.811.477L6.847,15.734l-1.5-.884L1.084,17.359l4.261,2.509,4.261-2.509L7.616,16.186,9.634,15l2.679,1.578V13.12L8.055,10.612Z" fill="blue"/>
      <path id="Path_1076" data-name="Path 1076" d="M15.414,9.023l2.02-1.188,2.234,1.316V5.7L15.41,3.188V6.643l1.256.739L14.646,8.57,12.7,7.425,10.672,8.619,8.652,7.431,9.99,6.643V3.188L5.732,5.7V9.151L7.884,7.884,9.9,9.072l-1.464.862L12.7,12.443l4.261-2.509Z" fill="blue"/>
      <path id="Path_1077" data-name="Path 1077" d="M24.317,2.509,20.055,0,15.794,2.509l4.261,2.509Z" fill="blue"/>
      <path id="Path_1078" data-name="Path 1078" d="M20.442,5.7V9.151L24.7,6.643V3.188Z" fill="blue"/>
      <path id="Path_1079" data-name="Path 1079" d="M.7,21.493,4.958,24V20.545L.7,18.037Z" fill="blue"/>
      <path id="Path_1080" data-name="Path 1080" d="M5.732,24,9.99,21.493V18.037L5.732,20.545Z" fill="blue"/>
      <path id="Path_1081" data-name="Path 1081" d="M15.41,21.493,19.668,24V20.545L15.41,18.037Z" fill="blue"/>
      <path id="Path_1082" data-name="Path 1082" d="M20.055,14.849l-1.632.961L16.4,14.623l.942-.555V10.612L13.087,13.12v3.456l2.548-1.5,2.02,1.188-1.861,1.1,4.261,2.509,4.261-2.509Z" fill="blue"/>
      <path id="Path_1083" data-name="Path 1083" d="M20.442,24,24.7,21.493V18.037l-4.258,2.508Z" fill="blue"/>
    </g>
    <path id="Field_of_Expertise_Icon_Set_-_24_px-6" data-name="Field of Expertise Icon Set - 24 px-6" d="M16.2,8.144l-.093-2.772,8.268,1.864-2.985,4.4-.4-2.409ZM14.859,1.261l-1.645,0-.428,6.1,2.294.493ZM11.69,7.124l.19-2.7-1.352-.305.092,2.767ZM9.279,0H7.634L7.2,6.108l2.3.52ZM5.205,21.179l1.587.477V17.218L5.205,16.78Zm2.7.812,1.731.521V18L7.9,17.524V21.99ZM.7,19.826l3.4,1.018V15.4l6.649,1.835v5.612L14.382,24V16.833L.718,13.118ZM5.463,6.776,1.091,12.147l13.635,3.707L19.543,9.96Zm15.284,7.743-.6-3.594-4.655,5.7v7.2L24.7,18.758V8.69Z" transform="translate(903.834 1472)" fill="blue"/>
    <g id="Field_of_Expertise_Icon_Set_-_24_px-7" data-name="Field of Expertise Icon Set - 24 px-7" transform="translate(939.834 1472)">
      <path id="Path_1084" data-name="Path 1084" d="M.7,24V4.232h24V24Zm2.833-5.411H16.207V13.794H3.533Zm19.035-.348c-.25-.279-.491-.56-.746-.823A.352.352,0,0,1,21.745,17c.515-1.638-.625-3.369-2.125-3.22a2.074,2.074,0,0,0-1.836,1.58,2.5,2.5,0,0,0,.478,2.519,1.847,1.847,0,0,0,2.242.563.236.236,0,0,1,.319.09c.243.3.5.582.735.859ZM16.21,8.955H9.19V10.53h7.02Z" fill="blue"/>
      <path id="Path_1085" data-name="Path 1085" d="M24.7,2.625H7.42V0H24.7Z" fill="blue"/>
      <path id="Path_1086" data-name="Path 1086" d="M.7,0H2.632V2.625H.7Z" fill="blue"/>
      <path id="Path_1087" data-name="Path 1087" d="M4.065.006H5.978v2.6H4.065Z" fill="blue"/>
      <path id="Path_1088" data-name="Path 1088" d="M14.8,16.986H4.942V15.394H14.8Z" fill="blue"/>
      <path id="Path_1089" data-name="Path 1089" d="M19.763,17a.658.658,0,0,1-.495-.227.863.863,0,0,1-.213-.56.922.922,0,0,1,.051-.314.835.835,0,0,1,.153-.268.716.716,0,0,1,.231-.18.635.635,0,0,1,.273-.065.684.684,0,0,1,.5.246.9.9,0,0,1,.21.577.87.87,0,0,1-.215.563A.664.664,0,0,1,19.763,17Z" fill="blue"/>
    </g>
    <g id="Field_of_Expertise_Icon_Set_-_24_px" data-name="Field of Expertise Icon Set - 24 px" transform="translate(974.534 1472)">
      <path id="Path_1090" data-name="Path 1090" d="M2.249,5.71,5.71,2.249,4.043.607a1.739,1.739,0,0,0-2.5,0l-.935.935a1.769,1.769,0,0,0,0,2.526Z" fill="blue"/>
      <path id="Path_1091" data-name="Path 1091" d="M22.863,22.409l-1.389-3.916-2.981,2.981,3.916,1.389a.874.874,0,0,0,.505.076C22.939,22.914,22.99,22.737,22.863,22.409Z" fill="blue"/>
      <path id="Path_1092" data-name="Path 1092" d="M16.471,13.036h0L11.419,7.958a.025.025,0,0,1-.025-.025l-.025-.025-4.9-4.9L3.006,6.467l9.979,9.979a.025.025,0,0,1,.025.025c0,.025,0,.025.025.025l4.446,4.446,3.461-3.461Z" fill="blue"/>
      <path id="Path_1093" data-name="Path 1093" d="M18.216,10.51,17,9.3l.834-.834,1.213,1.213,2.021-2.021L19.858,6.442l.808-.808,1.213,1.213L24,4.724,19.277,0l-7.1,7.1L16.9,11.823Z" fill="blue"/>
      <path id="Path_1094" data-name="Path 1094" d="M0,19.276,4.724,24l2.122-2.122L5.634,20.665l.808-.809L7.655,21.07l2.021-2.021L8.463,17.836,9.3,17l1.213,1.213L11.823,16.9,7.1,12.177Z" fill="blue"/>
    </g>
    <g id="Field_of_Expertise_Icon_Set_-_24_px-2-2" data-name="Field of Expertise Icon Set - 24 px" transform="translate(730 1522)">
      <path id="Path_1095" data-name="Path 1095" d="M2.811,7.137,7.137,2.811,5.053.758a2.174,2.174,0,0,0-3.126,0L.758,1.926a2.211,2.211,0,0,0,0,3.158Z" fill="blue"/>
      <path id="Path_1096" data-name="Path 1096" d="M28.579,28.011l-1.737-4.895-3.726,3.726,4.895,1.737a1.092,1.092,0,0,0,.632.095C28.674,28.643,28.737,28.422,28.579,28.011Z" fill="blue"/>
      <path id="Path_1097" data-name="Path 1097" d="M20.589,16.295h0L14.273,9.947a.031.031,0,0,1-.031-.032l-.032-.032L8.084,3.758,3.757,8.084,16.231,20.558a.031.031,0,0,1,.032.032c0,.031,0,.031.031.031l5.558,5.558,4.326-4.326Z" fill="blue"/>
      <path id="Path_1098" data-name="Path 1098" d="M22.77,13.137l-1.516-1.516L22.3,10.579,23.812,12.1l2.526-2.526L24.822,8.053l1.01-1.011,1.516,1.516L30,5.905,24.1,0,15.222,8.874l5.905,5.905Z" fill="blue"/>
      <path id="Path_1099" data-name="Path 1099" d="M0,24.1,5.905,30l2.653-2.653L7.042,25.832l1.011-1.01,1.516,1.516L12.1,23.811,10.579,22.3l1.042-1.042,1.516,1.516,1.642-1.642L8.874,15.222Z" fill="blue"/>
    </g>
    <path id="Group" d="M14.966,0A14.932,14.932,0,0,0,0,14.966,15.2,15.2,0,0,0,4.339,25.592,14.911,14.911,0,0,0,14.966,30a14.559,14.559,0,0,0,10.558-4.408,14.931,14.931,0,0,0,0-21.185A14.616,14.616,0,0,0,14.966,0Zm0,1.948A12.781,12.781,0,0,1,23.44,5.125L19.613,8.952a7.843,7.843,0,0,0-9.328,0L6.458,5.125A12.869,12.869,0,0,1,14.966,1.948ZM19,19a5.818,5.818,0,0,1-8.1,0A5.714,5.714,0,1,1,19,19ZM1.913,14.966A12.992,12.992,0,0,1,5.057,6.492l3.827,3.827a7.542,7.542,0,0,0,0,9.294L5.091,23.474A12.935,12.935,0,0,1,1.913,14.966ZM14.966,28.018A12.781,12.781,0,0,1,6.492,24.84l3.793-3.793a7.405,7.405,0,0,0,4.681,1.606,7.244,7.244,0,0,0,4.647-1.606l3.793,3.827A12.836,12.836,0,0,1,14.966,28.018Zm9.841-4.579-3.827-3.827a7.5,7.5,0,0,0,0-9.294l3.827-3.827a12.887,12.887,0,0,1,0,16.948Z" transform="translate(771 1522)" fill="blue"/>
    <path id="Layer_2" data-name="Layer 2" d="M15,21.429a1.072,1.072,0,0,1,1.071-1.072h8.572a1.071,1.071,0,0,1,0,2.143H16.071A1.071,1.071,0,0,1,15,21.429ZM30,3.214V23.571a3.214,3.214,0,0,1-3.214,3.214H3.214A3.214,3.214,0,0,1,0,23.571V3.214A3.214,3.214,0,0,1,3.214,0H26.786A3.214,3.214,0,0,1,30,3.214ZM27.857,9.643H2.143V23.571a1.072,1.072,0,0,0,1.071,1.072H26.786a1.072,1.072,0,0,0,1.071-1.072Zm0-6.429a1.071,1.071,0,0,0-1.071-1.071H3.214A1.071,1.071,0,0,0,2.143,3.214V7.5H27.857Zm-11.786,15h8.572a1.071,1.071,0,0,0,0-2.143H16.071a1.071,1.071,0,0,0,0,2.143Zm1.907-4.286h6.664a1.071,1.071,0,0,0,0-2.143H17.979a1.071,1.071,0,0,0,0,2.143Zm-5.432-9.75a1.074,1.074,0,1,0,.311.75,1.072,1.072,0,0,0-.311-.75ZM9.171,4.039l-.193-.1-.193-.064A1.072,1.072,0,1,0,8.571,6a.761.761,0,0,0,.214,0l.193-.054.193-.1.161-.139.129-.161a1.157,1.157,0,0,0,.182-.407,1.457,1.457,0,0,0,0-.214,1.071,1.071,0,0,0-.311-.75ZM4.286,21.429V12.857a1.071,1.071,0,0,1,1.071-1.071h6.429a1.071,1.071,0,0,1,1.071,1.071v8.572A1.071,1.071,0,0,1,11.786,22.5H5.357a1.071,1.071,0,0,1-1.071-1.071Zm2.143-1.072h4.286V13.929H6.429ZM6.118,4.179a.975.975,0,0,0-.354-.236,1.071,1.071,0,0,0-.814,0,.975.975,0,0,0-.354.236,1.073,1.073,0,0,0,0,1.511,1.074,1.074,0,0,0,1.168.236,1.136,1.136,0,0,0,.354-.236,1.073,1.073,0,0,0,0-1.511Z" transform="translate(811 1522)" fill="blue"/>
    <g id="facebook_4_1" data-name="facebook (4) 1" transform="translate(728 1568.817)" clip-path="url(#clip-path-6)">
      <path id="Path_1100" data-name="Path 1100" d="M13.331,3.5h1.826V.323A23.576,23.576,0,0,0,12.5.183c-2.632,0-4.436,1.656-4.436,4.7v2.8h-2.9v3.555h2.9v8.945h3.562V11.238H14.41l.443-3.555H11.622V5.234C11.622,4.207,11.9,3.5,13.331,3.5Z"/>
    </g>
    <g id="linkedin_1" data-name="linkedin 1" transform="translate(758 1568.817)" clip-path="url(#clip-path-6)">
      <path id="Path_1101" data-name="Path 1101" d="M20,20.183h0V12.847c0-3.588-.772-6.352-4.967-6.352A4.355,4.355,0,0,0,11.11,8.65h-.058V6.829H7.074V20.182h4.142V13.57c0-1.741.33-3.424,2.486-3.424,2.124,0,2.156,1.987,2.156,3.536v6.5Z"/>
      <path id="Path_1102" data-name="Path 1102" d="M.33,6.83H4.477V20.183H.33Z"/>
      <path id="Path_1103" data-name="Path 1103" d="M2.4.183a2.413,2.413,0,1,0,2.4,2.4A2.4,2.4,0,0,0,2.4.183Z"/>
    </g>
    <g id="twitter_2_1" data-name="twitter (2) 1" transform="translate(788 1568.817)" clip-path="url(#clip-path-6)">
      <path id="Path_1104" data-name="Path 1104" d="M20,3.981a8.549,8.549,0,0,1-2.362.648,4.077,4.077,0,0,0,1.8-2.266,8.192,8.192,0,0,1-2.6.992,4.1,4.1,0,0,0-7.092,2.8,4.222,4.222,0,0,0,.1.935A11.606,11.606,0,0,1,1.393,2.805a4.1,4.1,0,0,0,1.26,5.48A4.049,4.049,0,0,1,.8,7.78v.045a4.119,4.119,0,0,0,3.285,4.029,4.094,4.094,0,0,1-1.075.135,3.625,3.625,0,0,1-.776-.07,4.139,4.139,0,0,0,3.831,2.856A8.238,8.238,0,0,1,.981,16.524,7.671,7.671,0,0,1,0,16.468a11.543,11.543,0,0,0,6.29,1.84A11.59,11.59,0,0,0,17.96,6.64c0-.181-.006-.356-.015-.53A8.179,8.179,0,0,0,20,3.981Z"/>
    </g>
    <g id="Industries_Section_Icons-1-2" data-name="Industries Section Icons-1" transform="translate(733 1371)" clip-path="url(#clip-path)">
      <path id="Path_1105" data-name="Path 1105" d="M0,5.631c.108-.485.176-.982.331-1.451A6.118,6.118,0,1,1,.043,6.842,1.536,1.536,0,0,0,0,6.662ZM4.624,5.4V6.878h3.03V5.4ZM7.363,3.985A6,6,0,0,0,6.131,1.767,6.014,6.014,0,0,0,4.916,3.985ZM7.35,8.309H4.921a6.025,6.025,0,0,0,1.218,2.185A6.061,6.061,0,0,0,7.35,8.309Zm-4.162-2.9H1.445V6.876H3.188Zm5.9-.006V6.878h1.732V5.408Zm-5.7-1.43.927-2.2a4.762,4.762,0,0,0-2.385,2.2Zm0,4.33H1.969a4.338,4.338,0,0,0,2.339,2.159Zm4.57-6.526.923,2.2h1.449a4.758,4.758,0,0,0-2.371-2.2Zm-.039,8.7A4.63,4.63,0,0,0,10.335,8.3c-.493,0-.939-.005-1.381.006a.232.232,0,0,0-.168.133,9.6,9.6,0,0,1-.864,2.048Z" fill="#fff"/>
      <path id="Path_1106" data-name="Path 1106" d="M21.275,24c-.483-.267-.965-.537-1.45-.8-.645-.349-1.29-.7-1.941-1.033a.962.962,0,0,0-.42-.105c-1.444-.007-2.888,0-4.332,0h-.3v-8.7H23.977v8.693H22.922L23.9,24Zm-7.037-9.233v5.885h.3c1.093,0,2.186,0,3.279,0a1,1,0,0,1,.438.112c1.021.538,2.036,1.087,3.053,1.632.07.038.145.067.262.121l-.954-1.878h1.953V14.768Z" fill="#fff"/>
      <path id="Path_1107" data-name="Path 1107" d="M10.472,20.213v1.406h-.4a16.914,16.914,0,0,1-2.058-.04,2.948,2.948,0,0,1-2.559-2.969c-.008-.664,0-1.327,0-1.991v-.306l-1.3,1.014-.868-1.1,1.44-1.134L6.158,13.97l2.872,2.254c-.29.369-.567.723-.866,1.1L6.869,16.317c-.006.1-.013.15-.013.2,0,.679-.005,1.358,0,2.038a1.577,1.577,0,0,0,1.668,1.656C9.165,20.215,9.8,20.213,10.472,20.213Z" fill="#fff"/>
      <path id="Path_1108" data-name="Path 1108" d="M14.962,7.784l.867-1.1,1.262.983c.021-.024.039-.035.039-.046,0-.773.031-1.547-.006-2.316A1.538,1.538,0,0,0,15.5,3.8c-.57,0-1.14,0-1.71,0h-.271V2.427c.014-.01.026-.027.039-.027a20.181,20.181,0,0,1,2.408.028,2.933,2.933,0,0,1,2.567,2.981c.007.656,0,1.315,0,1.968V7.7l1.309-1.015.867,1.1L17.84,10.037Z" fill="#fff"/>
    </g>
    <g id="Industries_Section_Icons-2-2" data-name="Industries Section Icons-2" transform="translate(767 1371)" clip-path="url(#clip-path-2)">
      <path id="Path_1109" data-name="Path 1109" d="M0,7.757a1.034,1.034,0,0,1,1.089-.642c4.974.012,9.949,0,14.924.008a4.187,4.187,0,0,1,4.19,3.424,13.847,13.847,0,0,1,.123,1.638h.57c.361,0,.722-.006,1.084,0a.835.835,0,0,1,.845.836q.011,2.531,0,5.062a.828.828,0,0,1-.857.85c-.545.007-1.09,0-1.677,0,0,.3,0,.581,0,.867a4.233,4.233,0,0,1-3.608,4.152.937.937,0,0,0-.145.048H.634A1.155,1.155,0,0,1,0,23.366ZM18.6,12.14v-.662a2.537,2.537,0,0,0-2.669-2.666H1.712V22.305c.056,0,.092.007.127.007q7.105,0,14.211,0a2.454,2.454,0,0,0,.676-.093,2.693,2.693,0,0,0,1.838-3.279c-.286,0-.576,0-.864,0a3.39,3.39,0,0,1-3.315-3.053A3.347,3.347,0,0,1,16.959,12.3,12.3,12.3,0,0,1,18.6,12.14Zm2.531,1.738H17.842a1.689,1.689,0,1,0,0,3.373c1.019,0,2.023,0,3.035,0h.255Z" fill="#fff"/>
      <path id="Path_1110" data-name="Path 1110" d="M27.052,7.124H25.37a5.443,5.443,0,0,0-1.608-3.843,5.382,5.382,0,0,0-3.831-1.6V0a5.926,5.926,0,0,1,2.224.356A7.049,7.049,0,0,1,27,6.34c.01.07.031.135.047.2Z" fill="#fff"/>
      <path id="Path_1111" data-name="Path 1111" d="M24.124,7.115H22.465a2.6,2.6,0,0,0-2.542-2.542V2.945A4.155,4.155,0,0,1,24.124,7.115Z" fill="#fff"/>
      <path id="Path_1112" data-name="Path 1112" d="M9.3,19.8v.8h-1.7v-.8c-1.62-.269-2.583-1.244-2.523-2.542H6.739c.163.634.414.827,1.085.827.476,0,.951,0,1.426,0a.845.845,0,1,0,0-1.687,17.224,17.224,0,0,1-2.03-.049A2.479,2.479,0,0,1,5.077,13.72,2.549,2.549,0,0,1,7.45,11.347l.156-.015v-.82H9.288v.819a2.59,2.59,0,0,1,1.991.968,2.5,2.5,0,0,1,.554,1.55H10.238c-.157-.233-.256-.506-.452-.634a1.6,1.6,0,0,0-.744-.178c-.465-.026-.933-.01-1.4-.006a.843.843,0,1,0,0,1.685c.564.006,1.127,0,1.691,0A2.528,2.528,0,0,1,9.914,19.7C9.727,19.75,9.533,19.766,9.3,19.8Z" fill="#fff"/>
      <path id="Path_1113" data-name="Path 1113" d="M18.576,16.405a.852.852,0,1,1,.6-.231A.845.845,0,0,1,18.576,16.405Z" fill="#fff"/>
    </g>
    <g id="Industries_Section_Icons-3-2" data-name="Industries Section Icons-3" transform="translate(805 1371)" clip-path="url(#clip-path-3)">
      <path id="Path_1114" data-name="Path 1114" d="M24.058,14.2v1.219a1.754,1.754,0,0,0-.041.2A8.883,8.883,0,0,1,22.45,19.9a.373.373,0,0,0-.033.421c.543,1.21,1.079,2.423,1.616,3.634a2.438,2.438,0,0,1-.242-.078c-1.149-.507-2.3-1.014-3.446-1.529a.337.337,0,0,0-.376.035,8.72,8.72,0,0,1-3.014,1.354c-.492.114-1,.175-1.5.259H14.238c-.262-.036-.527-.06-.787-.108A9.09,9.09,0,0,1,6.27,18.017a.518.518,0,0,0-.3-.291c-.616-.3-1.231-.606-1.831-.94a.471.471,0,0,0-.484-.043c-1.2.544-2.413,1.073-3.621,1.606.027-.081.048-.164.081-.241q.761-1.722,1.532-3.439a.335.335,0,0,0-.036-.376A8.883,8.883,0,0,1,.2,11.054C.115,10.637.067,10.212,0,9.79V8.571a1.308,1.308,0,0,0,.039-.18A8.492,8.492,0,0,1,1.523,4.152,8.875,8.875,0,0,1,10.6.121a8.855,8.855,0,0,1,7.17,5.808.527.527,0,0,0,.321.326,9.059,9.059,0,0,1,5.739,6.566C23.939,13.271,23.983,13.738,24.058,14.2Zm-2.846,7,.035-.043a7.976,7.976,0,0,0-.364-.809.64.64,0,0,1,.1-.821,7.382,7.382,0,0,0,1.267-7.136,7.775,7.775,0,0,0-15.14,2.041,7.539,7.539,0,0,0,2.222,5.826,7.634,7.634,0,0,0,10.295.64.565.565,0,0,1,.722-.082C20.621,20.965,20.925,21.068,21.212,21.2ZM5.77,16.172A9.219,9.219,0,0,1,16.15,5.74c-.044-.09-.08-.167-.12-.241A7.741,7.741,0,0,0,3.759,3.634,7.511,7.511,0,0,0,1.47,10.087a7.558,7.558,0,0,0,1.749,4,.333.333,0,0,1,.05.417c-.166.338-.309.689-.49,1.1.407-.179.752-.318,1.086-.481a.364.364,0,0,1,.439.046C4.761,15.5,5.248,15.816,5.77,16.172Z" fill="#fff"/>
      <path id="Path_1115" data-name="Path 1115" d="M16.332,16.443a7.564,7.564,0,0,1-1.138.431,2.074,2.074,0,0,1-2.424-1.711,2.109,2.109,0,0,1,4.15-.752,3.1,3.1,0,0,1,.041.372.707.707,0,1,0,1.41-.043,3.524,3.524,0,1,0-1.992,3.233l.231-.115.7,1.207a4.535,4.535,0,0,1-1.768.615,4.921,4.921,0,1,1,4.174-5.644,2.676,2.676,0,0,1-.175,1.74,2.118,2.118,0,0,1-3.061.777Zm-.78-1.638a.712.712,0,1,0-.2.494.712.712,0,0,0,.2-.494Z" fill="#fff"/>
    </g>
    <g id="Industries_Section_Icons-4-2" data-name="Industries Section Icons-4" transform="translate(840 1371)">
      <path id="Path_1028-2" data-name="Path 1028" d="M24.034,14.617v.376a.882.882,0,0,1-.945.521c-.563-.024-1.127-.006-1.69-.006h-.218v1.405c.644,0,1.276.018,1.906-.006a.882.882,0,0,1,.944.522V17.8a.882.882,0,0,1-.946.521c-.563-.024-1.127-.006-1.69-.006h-.229c0,.717,0,1.4,0,2.075a.705.705,0,0,1-.739.735c-.2,0-.391,0-.586,0h-1.49v2.1a.7.7,0,1,1-1.406.007c0-.616,0-1.233,0-1.849v-.245H15.537c0,.72.005,1.422,0,2.124a.7.7,0,0,1-.712.715.708.708,0,0,1-.693-.711c0-.133,0-.265,0-.4V21.144H12.723v2.071a.707.707,0,1,1-1.407,0V21.365c0-.075-.006-.15-.01-.225H9.9v.265c0,.626.005,1.249,0,1.873a.7.7,0,1,1-1.4,0c-.007-.414,0-.827,0-1.241v-.888H7.093v2.074a.706.706,0,1,1-1.407-.008V21.129c-.708,0-1.381.013-2.052-.009a.824.824,0,0,1-.525-.194.911.911,0,0,1-.228-.557c-.027-.676-.011-1.353-.011-2.052-.655,0-1.287-.018-1.918.006A.885.885,0,0,1,.006,17.8v-.375a.881.881,0,0,1,.945-.521c.563.024,1.127.006,1.69.006h.218v-1.4c-.644,0-1.276-.018-1.906.006A.891.891,0,0,1,0,14.992v-.376A.882.882,0,0,1,.945,14.1c.563.025,1.127.006,1.69.006h.218V12.7c-.644,0-1.276-.017-1.906.006A.885.885,0,0,1,0,12.181v-.376a.881.881,0,0,1,.945-.521c.563.025,1.127.006,1.69.006h.218V9.885c-.644,0-1.276-.018-1.906.006A.885.885,0,0,1,.005,9.37V8.995A.881.881,0,0,1,.95,8.473c.563.024,1.127.006,1.69.006h.218V7.073c-.644,0-1.276-.018-1.906.006a.885.885,0,0,1-.945-.521V6.182a.881.881,0,0,1,.946-.521c.563.024,1.127.006,1.69.006h.229V3.6a.706.706,0,0,1,.575-.724,1.5,1.5,0,0,1,.28-.013H5.688c0-.655.018-1.285-.006-1.915A.867.867,0,0,1,6.2,0h.376a.881.881,0,0,1,.523.943c-.025.563-.006,1.123-.006,1.684v.218H8.5c0-.643.018-1.273-.006-1.9A.882.882,0,0,1,9.013,0h.376a.881.881,0,0,1,.523.943C9.886,1.507,9.9,2.066,9.9,2.627v.218h1.408c0-.643.018-1.273-.006-1.9A.882.882,0,0,1,11.829,0H12.2a.881.881,0,0,1,.523.943c-.025.563-.006,1.123-.006,1.684v.218H14.13c0-.643.018-1.273-.006-1.9A.882.882,0,0,1,14.646,0h.376a.88.88,0,0,1,.523.943c-.025.563-.006,1.123-.006,1.684v.218h1.408c0-.643.018-1.273-.006-1.9A.882.882,0,0,1,17.462,0h.376a.881.881,0,0,1,.523.944c-.025.563-.006,1.127-.006,1.685v.229h2.078a.7.7,0,0,1,.738.736V5.669c.656,0,1.288.018,1.918-.006a.883.883,0,0,1,.945.522V6.56a.881.881,0,0,1-.945.521c-.563-.024-1.127-.006-1.69-.006H21.18V8.481c.644,0,1.276.018,1.906-.006A.881.881,0,0,1,24.031,9v.376a.882.882,0,0,1-.945.521c-.563-.024-1.127-.006-1.69-.006h-.218v1.4c.644,0,1.276.018,1.906-.006a.881.881,0,0,1,.944.521v.375a.882.882,0,0,1-.945.521c-.563-.024-1.127-.006-1.69-.006h-.219V14.1c.644,0,1.276.018,1.906-.006A.892.892,0,0,1,24.034,14.617ZM4.288,4.274V19.705h15.46V4.274Z" fill="#fff"/>
      <path id="Path_1029-2" data-name="Path 1029" d="M12.017,18.318H6.528c-.583,0-.848-.262-.848-.839V6.5a.727.727,0,0,1,.834-.829h11a.728.728,0,0,1,.837.827v11a.725.725,0,0,1-.823.818Zm-.7-1.419V13.467a.722.722,0,0,1,.408-.707c.928-.466,1.856-.933,2.791-1.384a.849.849,0,0,1,.474-.062.664.664,0,0,1,.547.6.71.71,0,0,1-.414.724q-1.1.555-2.2,1.1a.3.3,0,0,0-.2.313c.009.882,0,1.764.005,2.647,0,.068.008.135.013.2h1.4c0-.7-.006-1.391,0-2.077a.7.7,0,0,1,1.064-.61.713.713,0,0,1,.34.653v2.037h1.39V9.881c-.705,0-1.393.007-2.081,0a.7.7,0,0,1-.611-1.064.715.715,0,0,1,.654-.339c.678,0,1.356,0,2.041,0V7.092H12.721c0,1.149,0,2.281,0,3.413a.739.739,0,0,1-.419.725c-.921.461-1.842.925-2.77,1.373a.882.882,0,0,1-.474.068.672.672,0,0,1-.558-.586.7.7,0,0,1,.4-.73q1.109-.56,2.224-1.1a.285.285,0,0,0,.188-.3c-.009-.89,0-1.78-.005-2.67,0-.067-.009-.133-.013-.193H9.9V9.133A.7.7,0,1,1,8.5,9.138c0-.609,0-1.218,0-1.827,0-.075-.006-.15-.01-.218H7.1V14.1H9.153a.7.7,0,1,1,0,1.4c-.61,0-1.22,0-1.831,0-.075,0-.15.007-.225.011V16.9Z" fill="#fff"/>
    </g>
    <g id="Industries_Section_Icons-5-2" data-name="Industries Section Icons-5" transform="translate(875 1371)" clip-path="url(#clip-path-4)">
      <path id="Path_1116" data-name="Path 1116" d="M23.945,3.375V7.359a3.3,3.3,0,0,1-.5,1.271,2.785,2.785,0,0,1-2.285,1.211c-.3.008-.6,0-.91,0v.316c0,1.937.014,3.873-.008,5.809a9.881,9.881,0,0,1-.179,1.787,7.836,7.836,0,0,1-5.537,5.93c-.545.145-1.113.212-1.669.313h-.983c-.352-.052-.712-.079-1.059-.158A7.743,7.743,0,0,1,5.2,19.273c-.184-.41-.362-.685-.843-.635a.636.636,0,0,1-.161-.03,5,5,0,0,1-4.157-4.37,6.832,6.832,0,0,1,1.578-5.1A29.673,29.673,0,0,0,3.781,6.387,8.972,8.972,0,0,0,4.933,3.766a9.413,9.413,0,0,0,.158-2.213.351.351,0,0,1,.047-.215C5.527.9,5.925.475,6.36,0c.977.97,1.965,1.9,2.9,2.885a21.421,21.421,0,0,1,3.394,4.57,9.649,9.649,0,0,1,1.188,6.653,6.717,6.717,0,0,1-1.6,3.353A5.856,5.856,0,0,1,8.385,19.26c-.342.035-.686.046-1.044.068a5.774,5.774,0,0,0,1.9,1.882,5.7,5.7,0,0,0,6.083.117,5.812,5.812,0,0,0,3.053-5.357c.012-1.952,0-3.905,0-5.859V9.844h-.651a2.811,2.811,0,0,1-2.9-2.914V3.372h1.871V0h1.871V3.359h1.872V0h1.872V3.375ZM9.746,6.328l-.071.033a9.716,9.716,0,0,1-.983,3.708c-.517,1.11-1.061,2.207-1.569,3.32a6.045,6.045,0,0,0-.64,3.721c.035.182.1.248.268.273a5.919,5.919,0,0,0,1.886-.045,3.665,3.665,0,0,0,2.624-1.658,6.369,6.369,0,0,0,.813-4.259,8.825,8.825,0,0,0-1.2-3.3C10.522,7.508,10.123,6.923,9.746,6.328Zm-5.2,10.433v-.133a7.043,7.043,0,0,1,.586-3.309c.459-1.074,1-2.116,1.465-3.185.352-.8.7-1.615.976-2.45a4.269,4.269,0,0,0-.113-3.112c-.149-.341-.352-.66-.527-.988l-.062.026A9.208,9.208,0,0,1,5.311,7.458,31.215,31.215,0,0,1,3.367,9.943a5.825,5.825,0,0,0-1.44,2.889,3.215,3.215,0,0,0,1.042,3.2A3.077,3.077,0,0,0,4.547,16.761ZM16.7,5.259c0,.629-.016,1.238.005,1.845a.886.886,0,0,0,.865.856q1.812.023,3.624,0a.861.861,0,0,0,.859-.781c.038-.635.01-1.274.01-1.921Z" fill="#fff"/>
    </g>
    <g id="Industries_Section_Icons-2-3" data-name="Industries Section Icons" transform="translate(913.178 1371)" clip-path="url(#clip-path-13)">
      <path id="Path_1117" data-name="Path 1117" d="M6.169,31.635,4.4,29.786Q2.347,27.65.291,25.52a1.238,1.238,0,0,0-.2-.145l3.378-3.51.949,1.052c.1-.1.164-.157.224-.22.895-.933,1.792-1.862,2.678-2.8a.578.578,0,0,1,.209-.15.558.558,0,0,1,.25-.043q2.152.011,4.3,0a3.577,3.577,0,0,1,3.447,2.133c.018.035.04.069.077.132l3.573-4.947L22.6,19.688a1.479,1.479,0,0,1-.083.149q-2.582,3.578-5.158,7.155a.363.363,0,0,1-.34.164q-4.076,0-8.152,0H8.613l-.033.056.986.923c-.316.32-.579.583-.838.851Q7.552,30.2,6.379,31.427c-.06.063-.109.137-.163.205ZM14.3,22.686a1.2,1.2,0,0,0-.044-.156A2.09,2.09,0,0,0,12.264,21.2c-1.331-.012-2.662-.006-3.993,0a.445.445,0,0,0-.287.126c-.8.826-1.6,1.661-2.4,2.494-.038.04-.071.085-.1.114L7.5,26.022a.412.412,0,0,0,.1-.082.666.666,0,0,1,.639-.278c2.686.009,5.372,0,8.057.01a.4.4,0,0,0,.212-.044.415.415,0,0,0,.161-.15q1.893-2.638,3.8-5.267c.048-.065.088-.133.143-.214l-1.139-.888-3.646,5.056H9.728V22.686ZM7.428,28.175l-4-4.159L2.183,25.308l4,4.159Z" transform="translate(0 -6.195)" fill="#fff"/>
      <path id="Path_1118" data-name="Path 1118" d="M18.091,0a3.315,3.315,0,0,1,1.414.617A2.974,2.974,0,0,1,20.469,2a3.087,3.087,0,0,1,.068,1.71,3,3,0,0,1-.849,1.466,2.821,2.821,0,0,1-1.486.738.8.8,0,0,0-.088.032,2.18,2.18,0,0,0,.229.058A4.42,4.42,0,0,1,22,9.884a20.621,20.621,0,0,1,.011,2.121H13.485c-.152-1.856.025-3.6,1.482-4.927a4.125,4.125,0,0,1,2.194-1.066c.055-.008.109-.02.164-.034.013,0,.022-.02.044-.041a2.875,2.875,0,0,1-2.094-1.48A3,3,0,0,1,17.288.045.881.881,0,0,0,17.422,0Zm2.541,10.518a3.094,3.094,0,0,0-1.458-2.643,2.5,2.5,0,0,0-2.847.013,3.1,3.1,0,0,0-1.437,2.63ZM19.191,2.992a1.518,1.518,0,0,0-.42-1.04,1.394,1.394,0,0,0-2.009-.017,1.516,1.516,0,0,0-.436,1.033,1.483,1.483,0,0,0,1.422,1.5,1.414,1.414,0,0,0,1.012-.431A1.527,1.527,0,0,0,19.191,2.992Z" transform="translate(-5.179)" fill="#fff"/>
    </g>
    <path id="Path_1208" data-name="Path 1208" d="M106.18,46.512a8.88,8.88,0,0,0-1.7,2.451,4.469,4.469,0,0,0-.519,2.018,1.808,1.808,0,0,0,.865,1.5,5.2,5.2,0,0,0,2.134.75,14.86,14.86,0,0,0,3.4.029,23.175,23.175,0,0,1,3.748,0v-.577h-3.517V47.868h3.517V44.35h1.326c-1.038-1.442-2.1-2.653-3.633-2.595a4.709,4.709,0,0,0-3.344,1.124,11.358,11.358,0,0,0-2.134,3.4l-.058.115Zm10.84-2.162h.49a4.387,4.387,0,0,1-.461-3.287,8.573,8.573,0,0,1,.519-1.73,7.557,7.557,0,0,1,.807-1.442c.634-.836,1.413-1.3,2.1-1.067a3.466,3.466,0,0,1,3.056,2.854,4.5,4.5,0,0,1,0,1.961,5.093,5.093,0,0,1-.692,1.845,3.639,3.639,0,0,1-3.921,1.874v1.47l.144.144a3.276,3.276,0,0,0,.317.317,4.765,4.765,0,0,1,.375.4.4.4,0,0,1,.087.115h1.932a.665.665,0,0,1,.663.634v3.517a.671.671,0,0,1-.663.663h-2.422a1.6,1.6,0,0,1-.173.231c-.087.086-.173.2-.259.288v2.335a.671.671,0,0,1-.663.663h-3.489a.653.653,0,0,1-.663-.663v-.923a22.49,22.49,0,0,0-3.69,0,15.774,15.774,0,0,1-3.69-.058,6.721,6.721,0,0,1-2.681-.951,3.021,3.021,0,0,1-1.413-2.508,6.06,6.06,0,0,1,.634-2.624,10.655,10.655,0,0,1,1.932-2.768,11.484,11.484,0,0,1,2.364-3.69,5.911,5.911,0,0,1,4.18-1.47c2.48-.086,3.864,1.817,5.277,3.863Zm-1.615,1.326v3.46h-3.489v2.191h3.489v3.489H117.6V51.385h3.517V49.194h-3.489V45.676Zm4.642-7.583c-.086-.029-.346.231-.634.634a5.08,5.08,0,0,0-.663,1.182,6.382,6.382,0,0,0-.432,1.442,2.492,2.492,0,0,0,.865,2.826,2.5,2.5,0,0,0,2.595-1.3,3.964,3.964,0,0,0,.519-1.413,4.037,4.037,0,0,0,0-1.442,2.3,2.3,0,0,0-2.047-1.874.417.417,0,0,1-.2-.058ZM114.08,32.9c-.087-.029-.288.259-.548.692a6.175,6.175,0,0,0-.519,1.24,6.556,6.556,0,0,0-.259,1.47c-.058,1.182.231,2.278,1.211,2.71a2.473,2.473,0,0,0,2.393-1.615,4.22,4.22,0,0,0,.346-1.442,3.372,3.372,0,0,0-.2-1.442,2.28,2.28,0,0,0-2.249-1.586c-.029,0-.115-.029-.173-.029Zm-1.672.058c.519-.923,1.24-1.47,1.961-1.326a3.471,3.471,0,0,1,3.4,2.451,5.406,5.406,0,0,1,.259,1.932,4.739,4.739,0,0,1-.461,1.9,3.666,3.666,0,0,1-3.777,2.364c-.058,0-.115-.029-.173-.029-1.7-.634-2.249-2.307-2.162-4.007a8.623,8.623,0,0,1,.288-1.759A11.018,11.018,0,0,1,112.408,32.962Zm-10.87,4.123c.663-.317,1.47.058,2.22.807a7.9,7.9,0,0,1,.98,1.326,8.362,8.362,0,0,1,.721,1.643c.519,1.643.4,3.4-1.124,4.411-.029.058-.087.058-.144.087a3.692,3.692,0,0,1-4.238-1.384,5.078,5.078,0,0,1-.894-1.759,5.022,5.022,0,0,1-.231-1.961,3.487,3.487,0,0,1,2.71-3.172Zm1.269,1.7c-.346-.346-.634-.577-.692-.548a.411.411,0,0,1-.173.058,2.241,2.241,0,0,0-1.816,2.076,3.542,3.542,0,0,0,.173,1.442,3.645,3.645,0,0,0,.692,1.326,2.42,2.42,0,0,0,2.71.98,2.559,2.559,0,0,0,.519-2.912,5.73,5.73,0,0,0-.605-1.355A5.185,5.185,0,0,0,102.807,38.786Zm4.987-7.15c.721-.144,1.413.4,1.961,1.326a6.762,6.762,0,0,1,.634,1.528,8.608,8.608,0,0,1,.288,1.759c.087,1.73-.432,3.4-2.162,4.007a.366.366,0,0,1-.173.029,3.666,3.666,0,0,1-3.777-2.364,5.573,5.573,0,0,1-.461-1.932,5.405,5.405,0,0,1,.259-1.932A3.537,3.537,0,0,1,107.794,31.635Zm.836,1.961c-.259-.432-.461-.721-.548-.692a.428.428,0,0,1-.2.029,2.317,2.317,0,0,0-2.278,1.586,3.967,3.967,0,0,0-.2,1.442,3.922,3.922,0,0,0,.346,1.442,2.473,2.473,0,0,0,2.393,1.615c.98-.4,1.269-1.528,1.211-2.71a6.281,6.281,0,0,0-.259-1.47A3.966,3.966,0,0,0,108.63,33.6Z" transform="translate(846.396 1340.298)" fill="#fff"/>
    <path id="Path_1209" data-name="Path 1209" d="M106.18,46.512a8.88,8.88,0,0,0-1.7,2.451,4.469,4.469,0,0,0-.519,2.018,1.808,1.808,0,0,0,.865,1.5,5.2,5.2,0,0,0,2.134.75,14.86,14.86,0,0,0,3.4.029,23.175,23.175,0,0,1,3.748,0v-.577h-3.517V47.868h3.517V44.35h1.326c-1.038-1.442-2.1-2.653-3.633-2.595a4.709,4.709,0,0,0-3.344,1.124,11.358,11.358,0,0,0-2.134,3.4l-.058.115Zm10.84-2.162h.49a4.387,4.387,0,0,1-.461-3.287,8.573,8.573,0,0,1,.519-1.73,7.557,7.557,0,0,1,.807-1.442c.634-.836,1.413-1.3,2.1-1.067a3.466,3.466,0,0,1,3.056,2.854,4.5,4.5,0,0,1,0,1.961,5.093,5.093,0,0,1-.692,1.845,3.639,3.639,0,0,1-3.921,1.874v1.47l.144.144a3.276,3.276,0,0,0,.317.317,4.765,4.765,0,0,1,.375.4.4.4,0,0,1,.087.115h1.932a.665.665,0,0,1,.663.634v3.517a.671.671,0,0,1-.663.663h-2.422a1.6,1.6,0,0,1-.173.231c-.087.086-.173.2-.259.288v2.335a.671.671,0,0,1-.663.663h-3.489a.653.653,0,0,1-.663-.663v-.923a22.49,22.49,0,0,0-3.69,0,15.774,15.774,0,0,1-3.69-.058,6.721,6.721,0,0,1-2.681-.951,3.021,3.021,0,0,1-1.413-2.508,6.06,6.06,0,0,1,.634-2.624,10.655,10.655,0,0,1,1.932-2.768,11.484,11.484,0,0,1,2.364-3.69,5.911,5.911,0,0,1,4.18-1.47c2.48-.086,3.864,1.817,5.277,3.863Zm-1.615,1.326v3.46h-3.489v2.191h3.489v3.489H117.6V51.385h3.517V49.194h-3.489V45.676Zm4.642-7.583c-.086-.029-.346.231-.634.634a5.08,5.08,0,0,0-.663,1.182,6.382,6.382,0,0,0-.432,1.442,2.492,2.492,0,0,0,.865,2.826,2.5,2.5,0,0,0,2.595-1.3,3.964,3.964,0,0,0,.519-1.413,4.037,4.037,0,0,0,0-1.442,2.3,2.3,0,0,0-2.047-1.874.417.417,0,0,1-.2-.058ZM114.08,32.9c-.087-.029-.288.259-.548.692a6.175,6.175,0,0,0-.519,1.24,6.556,6.556,0,0,0-.259,1.47c-.058,1.182.231,2.278,1.211,2.71a2.473,2.473,0,0,0,2.393-1.615,4.22,4.22,0,0,0,.346-1.442,3.372,3.372,0,0,0-.2-1.442,2.28,2.28,0,0,0-2.249-1.586c-.029,0-.115-.029-.173-.029Zm-1.672.058c.519-.923,1.24-1.47,1.961-1.326a3.471,3.471,0,0,1,3.4,2.451,5.406,5.406,0,0,1,.259,1.932,4.739,4.739,0,0,1-.461,1.9,3.666,3.666,0,0,1-3.777,2.364c-.058,0-.115-.029-.173-.029-1.7-.634-2.249-2.307-2.162-4.007a8.623,8.623,0,0,1,.288-1.759A11.018,11.018,0,0,1,112.408,32.962Zm-10.87,4.123c.663-.317,1.47.058,2.22.807a7.9,7.9,0,0,1,.98,1.326,8.362,8.362,0,0,1,.721,1.643c.519,1.643.4,3.4-1.124,4.411-.029.058-.087.058-.144.087a3.692,3.692,0,0,1-4.238-1.384,5.078,5.078,0,0,1-.894-1.759,5.022,5.022,0,0,1-.231-1.961,3.487,3.487,0,0,1,2.71-3.172Zm1.269,1.7c-.346-.346-.634-.577-.692-.548a.411.411,0,0,1-.173.058,2.241,2.241,0,0,0-1.816,2.076,3.542,3.542,0,0,0,.173,1.442,3.645,3.645,0,0,0,.692,1.326,2.42,2.42,0,0,0,2.71.98,2.559,2.559,0,0,0,.519-2.912,5.73,5.73,0,0,0-.605-1.355A5.185,5.185,0,0,0,102.807,38.786Zm4.987-7.15c.721-.144,1.413.4,1.961,1.326a6.762,6.762,0,0,1,.634,1.528,8.608,8.608,0,0,1,.288,1.759c.087,1.73-.432,3.4-2.162,4.007a.366.366,0,0,1-.173.029,3.666,3.666,0,0,1-3.777-2.364,5.573,5.573,0,0,1-.461-1.932,5.405,5.405,0,0,1,.259-1.932A3.537,3.537,0,0,1,107.794,31.635Zm.836,1.961c-.259-.432-.461-.721-.548-.692a.428.428,0,0,1-.2.029,2.317,2.317,0,0,0-2.278,1.586,3.967,3.967,0,0,0-.2,1.442,3.922,3.922,0,0,0,.346,1.442,2.473,2.473,0,0,0,2.393,1.615c.98-.4,1.269-1.528,1.211-2.71a6.281,6.281,0,0,0-.259-1.47A3.966,3.966,0,0,0,108.63,33.6Z" transform="translate(846.396 1386.298)" fill="#7ec8e3"/>
    <path id="Path_1210" data-name="Path 1210" d="M206.422,109.772a5.382,5.382,0,0,0,1.48-5.356,5.167,5.167,0,0,0-4.831-3.677,4.976,4.976,0,0,0-3.65,1.629,4.975,4.975,0,0,0-3.65-1.629,5.17,5.17,0,0,0-4.831,3.677,5.39,5.39,0,0,0,1.48,5.356c1.675,1.794,6.637,6.6,6.686,6.649a.389.389,0,0,0,.095.061.258.258,0,0,0,.049.03.435.435,0,0,0,.335,0,.438.438,0,0,0,.049-.03.385.385,0,0,0,.095-.061c.056-.049,5.018-4.855,6.693-6.649Zm-7,5.7c-1.114-1.083-4.925-4.8-6.345-6.314a4.515,4.515,0,0,1-1.266-4.535,4.231,4.231,0,0,1,3.961-2.994,4.136,4.136,0,0,1,3.277,1.684.443.443,0,0,0,.571.143.293.293,0,0,0,.046-.018h0a.406.406,0,0,0,.089-.089.206.206,0,0,0,.037-.037,0,0,0,0,1,0,0,4.132,4.132,0,0,1,3.274-1.681,4.232,4.232,0,0,1,3.961,2.994,4.508,4.508,0,0,1-1.266,4.535c-1.419,1.517-5.23,5.23-6.345,6.314Z" transform="translate(793.989 1272.774)" fill="#fff"/>
    <path id="Path_1211" data-name="Path 1211" d="M101.917,185.521c-.095-.912-.287-2.814-.33-3.223a2.71,2.71,0,0,0-.552-1.5,1.5,1.5,0,0,0-1.517-.351,1.381,1.381,0,0,0-1.053,1.2c-.1.931-.381,3.711-.443,5.353-.061,1.608,1.535,3.595,2.389,4.663l.22.275a8.516,8.516,0,0,1,1.4,3.287.447.447,0,0,0,.436.357.46.46,0,0,0,.092-.009.445.445,0,0,0,.345-.528,9.286,9.286,0,0,0-1.575-3.653l-.226-.284c-.671-.836-2.243-2.8-2.194-4.068.061-1.614.339-4.367.439-5.292a.467.467,0,0,1,.327-.412.845.845,0,0,1,.641,0,1.834,1.834,0,0,1,.375,1.053c.046.439.269,2.618.351,3.418a1.255,1.255,0,0,0-.36.452,2.78,2.78,0,0,0,.348,2.209.476.476,0,0,0,.034.052l1.507,1.977a.449.449,0,1,0,.714-.543l-1.489-1.953a2.057,2.057,0,0,1-.308-1.352.4.4,0,0,1,.3-.226.69.69,0,0,1,.507.095c.333.278,2.048,1.877,2.484,2.368a9.7,9.7,0,0,1,.778,3.2l.043.287a9.181,9.181,0,0,0,.757,3.009.441.441,0,0,0,.369.2.447.447,0,0,0,.369-.7,10.591,10.591,0,0,1-.613-2.643l-.043-.287c-.281-1.84-.555-3.168-.992-3.659-.467-.528-2.228-2.167-2.582-2.463a1.473,1.473,0,0,0-.946-.314Z" transform="translate(881.662 1197.467)" fill="#fff"/>
    <path id="Path_1212" data-name="Path 1212" d="M439.81,191.238a9.312,9.312,0,0,0-1.575,3.653.444.444,0,0,0,.345.528.461.461,0,0,0,.092.009.444.444,0,0,0,.436-.357,8.518,8.518,0,0,1,1.4-3.287l.22-.275c.857-1.068,2.451-3.055,2.389-4.663-.061-1.642-.342-4.422-.443-5.356a1.381,1.381,0,0,0-1.053-1.2,1.5,1.5,0,0,0-1.517.351,2.712,2.712,0,0,0-.552,1.5c-.043.409-.238,2.31-.329,3.223a1.507,1.507,0,0,0-.946.314c-.354.3-2.115,1.935-2.582,2.463-.436.491-.711,1.819-.992,3.659l-.043.287a10.613,10.613,0,0,1-.613,2.643.447.447,0,1,0,.739.5,9.179,9.179,0,0,0,.757-3.009l.043-.287a9.665,9.665,0,0,1,.778-3.2c.436-.491,2.151-2.09,2.484-2.368a.69.69,0,0,1,.507-.095.4.4,0,0,1,.3.226c.14.284-.1.964-.308,1.352l-1.489,1.953a.449.449,0,1,0,.714.543l1.507-1.977a.313.313,0,0,0,.034-.052,2.78,2.78,0,0,0,.348-2.209,1.311,1.311,0,0,0-.36-.452c.082-.8.305-2.978.351-3.418a1.853,1.853,0,0,1,.366-1.044.816.816,0,0,1,.65-.012.467.467,0,0,1,.327.412c.1.925.378,3.674.439,5.292.049,1.273-1.523,3.232-2.194,4.068Z" transform="translate(564.02 1197.618)" fill="#fff"/>
    <path id="Path_1213" data-name="Path 1213" d="M206.422,109.772a5.382,5.382,0,0,0,1.48-5.356,5.167,5.167,0,0,0-4.831-3.677,4.976,4.976,0,0,0-3.65,1.629,4.975,4.975,0,0,0-3.65-1.629,5.17,5.17,0,0,0-4.831,3.677,5.39,5.39,0,0,0,1.48,5.356c1.675,1.794,6.637,6.6,6.686,6.649a.389.389,0,0,0,.095.061.258.258,0,0,0,.049.03.435.435,0,0,0,.335,0,.438.438,0,0,0,.049-.03.385.385,0,0,0,.095-.061c.056-.049,5.018-4.855,6.693-6.649Zm-7,5.7c-1.114-1.083-4.925-4.8-6.345-6.314a4.515,4.515,0,0,1-1.266-4.535,4.231,4.231,0,0,1,3.961-2.994,4.136,4.136,0,0,1,3.277,1.684.443.443,0,0,0,.571.143.293.293,0,0,0,.046-.018h0a.406.406,0,0,0,.089-.089.206.206,0,0,0,.037-.037,0,0,0,0,1,0,0,4.132,4.132,0,0,1,3.274-1.681,4.232,4.232,0,0,1,3.961,2.994,4.508,4.508,0,0,1-1.266,4.535c-1.419,1.517-5.23,5.23-6.345,6.314Z" transform="translate(793.989 1318.774)" fill="#7ec8e3"/>
    <path id="Path_1214" data-name="Path 1214" d="M101.917,185.521c-.095-.912-.287-2.814-.33-3.223a2.71,2.71,0,0,0-.552-1.5,1.5,1.5,0,0,0-1.517-.351,1.381,1.381,0,0,0-1.053,1.2c-.1.931-.381,3.711-.443,5.353-.061,1.608,1.535,3.595,2.389,4.663l.22.275a8.516,8.516,0,0,1,1.4,3.287.447.447,0,0,0,.436.357.46.46,0,0,0,.092-.009.445.445,0,0,0,.345-.528,9.286,9.286,0,0,0-1.575-3.653l-.226-.284c-.671-.836-2.243-2.8-2.194-4.068.061-1.614.339-4.367.439-5.292a.467.467,0,0,1,.327-.412.845.845,0,0,1,.641,0,1.834,1.834,0,0,1,.375,1.053c.046.439.269,2.618.351,3.418a1.255,1.255,0,0,0-.36.452,2.78,2.78,0,0,0,.348,2.209.476.476,0,0,0,.034.052l1.507,1.977a.449.449,0,1,0,.714-.543l-1.489-1.953a2.057,2.057,0,0,1-.308-1.352.4.4,0,0,1,.3-.226.69.69,0,0,1,.507.095c.333.278,2.048,1.877,2.484,2.368a9.7,9.7,0,0,1,.778,3.2l.043.287a9.181,9.181,0,0,0,.757,3.009.441.441,0,0,0,.369.2.447.447,0,0,0,.369-.7,10.591,10.591,0,0,1-.613-2.643l-.043-.287c-.281-1.84-.555-3.168-.992-3.659-.467-.528-2.228-2.167-2.582-2.463a1.473,1.473,0,0,0-.946-.314Z" transform="translate(881.662 1243.467)" fill="#7ec8e3"/>
    <path id="Path_1215" data-name="Path 1215" d="M439.81,191.238a9.312,9.312,0,0,0-1.575,3.653.444.444,0,0,0,.345.528.461.461,0,0,0,.092.009.444.444,0,0,0,.436-.357,8.518,8.518,0,0,1,1.4-3.287l.22-.275c.857-1.068,2.451-3.055,2.389-4.663-.061-1.642-.342-4.422-.443-5.356a1.381,1.381,0,0,0-1.053-1.2,1.5,1.5,0,0,0-1.517.351,2.712,2.712,0,0,0-.552,1.5c-.043.409-.238,2.31-.329,3.223a1.507,1.507,0,0,0-.946.314c-.354.3-2.115,1.935-2.582,2.463-.436.491-.711,1.819-.992,3.659l-.043.287a10.613,10.613,0,0,1-.613,2.643.447.447,0,1,0,.739.5,9.179,9.179,0,0,0,.757-3.009l.043-.287a9.665,9.665,0,0,1,.778-3.2c.436-.491,2.151-2.09,2.484-2.368a.69.69,0,0,1,.507-.095.4.4,0,0,1,.3.226c.14.284-.1.964-.308,1.352l-1.489,1.953a.449.449,0,1,0,.714.543l1.507-1.977a.313.313,0,0,0,.034-.052,2.78,2.78,0,0,0,.348-2.209,1.311,1.311,0,0,0-.36-.452c.082-.8.305-2.978.351-3.418a1.853,1.853,0,0,1,.366-1.044.816.816,0,0,1,.65-.012.467.467,0,0,1,.327.412c.1.925.378,3.674.439,5.292.049,1.273-1.523,3.232-2.194,4.068Z" transform="translate(564.02 1243.618)" fill="#7ec8e3"/>
  </g>
</svg>
