<?xml version="1.0" encoding="utf-8"?>
<!-- Generator: Adobe Illustrator 24.2.0, SVG Export Plug-In . SVG Version: 6.00 Build 0)  -->
<svg version="1.1" xmlns="http://www.w3.org/2000/svg" xmlns:xlink="http://www.w3.org/1999/xlink" x="0px" y="0px"
	 viewBox="0 0 80 80" style="enable-background:new 0 0 80 80;" xml:space="preserve">
<style type="text/css">
	.st0{fill:#3953A4;}
	.st1{fill:#FFFFFF;}
</style>
<g id="Layer_1">
	<circle class="st0" cx="40" cy="39.3" r="38.1"/>
</g>
<g id="Layer_2">
	<path class="st1" d="M60.3,35.7c-0.2-0.4-0.5-0.6-0.9-0.6H45.3c3.3-5.3,7.1-12.1,7.1-16c0-7.2-5.8-13-13-13s-13,5.8-13,13
		c0,3.9,3.7,10.7,7.1,16H19.4c-0.4,0-0.8,0.2-0.9,0.6l-9,21c-0.2,0.5,0,1.1,0.5,1.3c0.1,0.1,0.3,0.1,0.4,0.1h58c0.6,0,1-0.4,1-1
		c0-0.1,0-0.3-0.1-0.4L60.3,35.7z M52.1,37.1h6.6l1.1,2.5L58.5,40l-1.6-0.8c-0.2-0.1-0.5-0.1-0.7-0.1L52.7,40l-1.2-1.2L52.1,37.1z
		 M28.4,19.1c0-6.1,4.9-11,11-11s11,4.9,11,11c0,4.8-7.3,16.1-11,21.3C35.7,35.1,28.4,23.8,28.4,19.1z M41.8,40.3
		c2.2,0.5,3.5,1.5,3.5,2.2c0,1-2.3,2.5-6,2.5s-6-1.5-6-2.5c0-0.8,1.3-1.8,3.5-2.2c0.9,1.3,1.5,2.2,1.7,2.3c0.3,0.4,1,0.5,1.4,0.2
		c0.1-0.1,0.2-0.1,0.2-0.2C40.3,42.5,40.9,41.6,41.8,40.3z M20,37.1h6.5l-0.8,1.1L22.4,39l-2.9-0.7L20,37.1z M39.4,53.7l-0.8,2.3
		H11.9l6.8-15.9l3.4,0.9c0.2,0,0.3,0,0.5,0l4-1c0.2-0.1,0.5-0.2,0.6-0.4l1.7-2.6h5.8c0.3,0.5,0.7,1,1,1.5c-2.7,0.7-4.3,2.2-4.3,4
		c0,2.6,3.4,4.5,8,4.5s8-1.9,8-4.5c0-1.8-1.7-3.3-4.3-4c0.3-0.5,0.6-1,1-1.5h6l-0.6,1.7c-0.1,0.4,0,0.8,0.2,1l2,2
		c0.2,0.2,0.6,0.3,1,0.3l3.6-0.9l1.7,0.8c0.2,0.1,0.5,0.1,0.8,0.1l1.9-0.6l1.5,3.4l-4.5-0.8c-0.2,0-0.4,0-0.6,0.1l-5.9,3l-3.9,1
		c-0.3,0.1-0.5,0.3-0.7,0.5l-1.8,3.6l-4.5,0.9C39.8,53.1,39.5,53.4,39.4,53.7z M40.8,56.1l0.4-1.1l4.4-0.9c0.3-0.1,0.6-0.3,0.7-0.5
		l1.8-3.6l3.6-0.9c0.1,0,0.1,0,0.2-0.1l5.7-2.9L63,47l3.9,9.1H40.8z"/>
	<path class="st1" d="M47.4,19.1c0-4.4-3.6-8-8-8s-8,3.6-8,8s3.6,8,8,8C43.8,27.1,47.4,23.5,47.4,19.1z M33.4,19.1c0-3.3,2.7-6,6-6
		s6,2.7,6,6s-2.7,6-6,6C36.1,25.1,33.4,22.4,33.4,19.1z"/>
	<path class="st1" d="M34.3,48.6c-0.1-0.2-0.2-0.3-0.3-0.4l-2.8-1.9l-1.9-2.8c-0.2-0.3-0.5-0.4-0.8-0.4h-3c-0.3,0-0.5,0.1-0.7,0.3
		L23.1,45l-3.4-0.9c-0.5-0.1-1.1,0.2-1.2,0.7c0,0,0,0,0,0l-1,4c-0.1,0.3,0,0.6,0.1,0.8l2,3c0.1,0.2,0.3,0.4,0.6,0.4l4,1
		c0.1,0,0.2,0,0.2,0h3c0.2,0,0.3,0,0.4-0.1l1.6-0.8l2.6,0.9c0.1,0,0.2,0,0.3,0c0.3,0,0.5-0.1,0.7-0.3l2-2c0.3-0.3,0.4-0.8,0.2-1.2
		L34.3,48.6z M32.1,51.9l-2.4-0.8c-0.3-0.1-0.5-0.1-0.8,0.1l-1.8,0.9h-2.6L21,51.2l-1.5-2.3l0.6-2.6l3,0.8c0.3,0.1,0.7,0,0.9-0.3
		l1.7-1.7h2.1l1.7,2.6c0.1,0.1,0.2,0.2,0.3,0.3l2.8,1.9l0.6,1.1L32.1,51.9z"/>
</g>
</svg>
