<?xml version="1.0" encoding="utf-8"?>
<!-- Generator: Adobe Illustrator 24.2.0, SVG Export Plug-In . SVG Version: 6.00 Build 0)  -->
<svg version="1.1" xmlns="http://www.w3.org/2000/svg" xmlns:xlink="http://www.w3.org/1999/xlink" x="0px" y="0px"
	 viewBox="0 0 80 80" style="enable-background:new 0 0 80 80;" xml:space="preserve">
<style type="text/css">
	.st0{fill:#3953A4;}
	.st1{fill:#FFFFFF;}
</style>
<g id="Layer_1">
	<circle class="st0" cx="40" cy="39.3" r="38.1"/>
</g>
<g id="Layer_2">
	<path class="st1" d="M61.1,43.9c1.4,0,2.6-1.2,2.6-2.6l0-3.5c0-1.4-1.2-2.6-2.6-2.6h-0.7c-0.1-0.7-0.3-1.4-0.6-2.1l0.6-0.3
		c1.2-0.7,1.7-2.3,0.9-3.5l-1.7-3c-0.7-1.2-2.3-1.7-3.5-0.9c0,0,0,0,0,0l-0.6,0.3c-0.5-0.5-1-1-1.5-1.5l0.3-0.6
		c0.7-1.2,0.3-2.8-0.9-3.5c0,0,0,0,0,0l-3-1.7c-1.2-0.7-2.8-0.3-3.5,0.9l-0.3,0.6c-0.7-0.2-1.4-0.4-2.1-0.6v-0.7
		c0-1.4-1.2-2.6-2.6-2.6h-3.5c-1.4,0-2.6,1.2-2.6,2.6v0.7c-0.7,0.1-1.4,0.3-2.1,0.6l-0.3-0.6c-0.7-1.2-2.3-1.7-3.5-0.9l-3,1.7
		c-1.2,0.7-1.7,2.3-0.9,3.5c0,0,0,0,0,0l0.3,0.6c-0.5,0.5-1,1-1.5,1.5l-0.6-0.3c-1.2-0.7-2.8-0.3-3.5,0.9l-1.7,3
		c-0.7,1.2-0.3,2.8,0.9,3.5l0.6,0.3c-0.2,0.7-0.4,1.4-0.6,2.1h-0.7c-1.4,0-2.6,1.2-2.6,2.6l0,3.5c0,1.4,1.2,2.6,2.6,2.6h0.7
		c0.1,0.7,0.3,1.4,0.6,2.1l-0.6,0.3c-1.2,0.7-1.7,2.3-0.9,3.5l1.7,3c0.7,1.2,2.3,1.7,3.5,0.9l0.6-0.3c0.5,0.5,1,1,1.5,1.5l-0.3,0.6
		c-0.7,1.2-0.3,2.8,0.9,3.5l3,1.7c0.4,0.2,0.8,0.3,1.3,0.3c0,0,0,0,0.1,0c-0.3-0.8-0.7-1.6-1.1-2.4l-2.4-1.4c-0.3-0.2-0.4-0.6-0.3-1
		l0.6-1.1c-0.5-0.7-0.9-1.4-1.3-2c-0.4-0.6-0.7-1.1-1-1.6c-0.1-0.2-0.3-0.3-0.4-0.5c-0.1-0.2-0.4-0.2-0.5-0.1l-1.6,0.9
		c-0.3,0.2-0.8,0.1-1-0.3l-1.7-3c-0.2-0.3-0.1-0.8,0.3-1c0,0,0,0,0,0l1.6-0.9c0.2-0.1,0.2-0.3,0.2-0.5c-0.5-1.3-0.9-2.7-1.1-4.1
		c0-0.2-0.2-0.4-0.4-0.4h-1.9c-0.4,0-0.7-0.3-0.7-0.7c0,0,0,0,0,0l0-3.5c0-0.4,0.3-0.7,0.7-0.7c0,0,0,0,0,0h1.9
		c0.2,0,0.4-0.2,0.4-0.4c0.2-1.4,0.6-2.8,1.1-4.1c0.1-0.2,0-0.4-0.2-0.5l-1.6-0.9c-0.3-0.2-0.4-0.6-0.3-1c0,0,0,0,0,0
		c0,0,1.7-3,1.7-3c0.2-0.3,0.6-0.4,1-0.3c0,0,1.6,0.9,1.6,0.9c0.2,0.1,0.4,0.1,0.5-0.1c0.9-1.1,1.9-2.1,3-3c0.2-0.1,0.2-0.4,0.1-0.5
		l-0.9-1.6c-0.2-0.3-0.1-0.8,0.3-1c0,0,0,0,0,0l3-1.7c0.3-0.2,0.8-0.1,1,0.3l0.9,1.6c0.1,0.2,0.3,0.2,0.5,0.2
		c1.3-0.5,2.7-0.9,4.1-1.1c0.2,0,0.4-0.2,0.4-0.4v-1.9c0-0.4,0.3-0.7,0.7-0.7h3.5c0.4,0,0.7,0.3,0.7,0.7v1.9c0,0.2,0.2,0.4,0.4,0.4
		c1.4,0.2,2.8,0.6,4.1,1.1c0.2,0.1,0.4,0,0.5-0.2l0.9-1.6c0.2-0.3,0.6-0.4,1-0.3l3,1.7c0.3,0.2,0.4,0.6,0.3,1c0,0,0,0,0,0l-0.9,1.6
		c-0.1,0.2-0.1,0.4,0.1,0.5c1.1,0.9,2.1,1.9,3,3c0.1,0.2,0.4,0.2,0.5,0.1l1.6-0.9c0.3-0.2,0.8-0.1,1,0.3l1.7,3
		c0.2,0.3,0.1,0.8-0.3,1c0,0,0,0,0,0l-1.6,0.9c-0.2,0.1-0.2,0.3-0.2,0.5c0.5,1.3,0.9,2.7,1.1,4.1c0,0.2,0.2,0.4,0.4,0.4h1.9
		c0.4,0,0.7,0.3,0.7,0.7c0,0,0,0,0,0l0,3.5c0,0.4-0.3,0.7-0.7,0.7c0,0,0,0,0,0h-1.9c-0.2,0-0.4,0.2-0.4,0.4
		c-0.2,1.4-0.6,2.8-1.1,4.1c-0.1,0.2,0,0.4,0.2,0.5l1.6,0.9c0.3,0.2,0.4,0.6,0.3,1c0,0,0,0,0,0c0,0-1.7,3-1.7,3
		c-0.2,0.3-0.6,0.4-1,0.3c0,0-1.6-0.9-1.6-0.9c-0.2-0.1-0.4-0.1-0.5,0.1c-0.1,0.2-2.3,3.4-2.8,4.1l0.6,1.1c0.2,0.3,0.1,0.8-0.3,1
		c0,0,0,0,0,0l-2.4,1.4c-0.4,0.8-0.8,1.5-1.1,2.4c0,0,0,0,0.1,0c0.5,0,0.9-0.1,1.3-0.3l3-1.7c1.2-0.7,1.7-2.3,0.9-3.5c0,0,0,0,0,0
		L54,55c0.5-0.5,1-1,1.5-1.5l0.6,0.3c1.2,0.7,2.8,0.3,3.5-0.9l1.7-3c0.7-1.2,0.3-2.8-0.9-3.5L59.9,46c0.2-0.7,0.4-1.4,0.6-2.1
		L61.1,43.9z"/>
	<path class="st1" d="M53.2,50.4c0.6-0.9,1-1.7,1.4-2.5c1.4-2.7,2.1-5.3,2.1-7.7c0-9.2-7.3-16.6-16.2-16.6h-0.6
		c-8.9,0-16.2,7.4-16.2,16.6c0,2.5,0.7,5,2.1,7.7c0.4,0.8,0.9,1.6,1.4,2.5c0.4,0.6,0.8,1.2,1.3,1.9c1.8,2.7,4.3,6.4,5.5,10.7
		c0.3,1.3,1.3,2.3,2.5,2.7v1.1c0,1.5,1.2,2.8,2.7,2.8h2.1c1.5,0,2.7-1.3,2.7-2.8v-1.1c1.2-0.4,2.2-1.5,2.5-2.7
		c1.2-4.3,3.7-8,5.5-10.7C52.4,51.6,52.8,51,53.2,50.4z M42,66.9c0,0.5-0.3,0.9-0.8,0.9h-2.1c-0.5,0-0.9-0.5-0.8-0.9v-0.9H42V66.9z
		 M50.3,51.3c-1.9,2.8-4.5,6.6-5.7,11.3c-0.2,0.8-0.9,1.4-1.8,1.5h-1.8v-9.9c0-0.5-0.4-0.9-0.9-0.9s-0.9,0.4-0.9,0.9v9.9h-1.8
		c-0.8-0.1-1.5-0.7-1.8-1.5c-1.3-4.6-3.8-8.5-5.7-11.3c-0.5-0.7-0.9-1.3-1.2-1.9c-0.5-0.8-1-1.6-1.3-2.4c-1.2-2.1-1.8-4.5-1.9-6.9
		c0-8.1,6.4-14.7,14.3-14.7h0.6c7.9,0,14.3,6.6,14.3,14.7c-0.1,2.4-0.7,4.8-1.9,6.9c-0.4,0.8-0.8,1.5-1.3,2.4
		C51.2,50,50.8,50.6,50.3,51.3z"/>
	<path class="st1" d="M47.8,36.4c0.8-1,0.7-2.4-0.1-3.2L46.6,32c-0.9-0.9-2.3-0.9-3.2-0.1c-0.1-1.2-1.2-2.2-2.4-2.2h-1.6
		c-1.2,0-2.3,1-2.4,2.2c-1-0.8-2.4-0.7-3.2,0.1l-1.1,1.1c-0.9,0.9-0.9,2.3-0.1,3.3c-1.2,0.1-2.2,1.2-2.2,2.4v1.6
		c0,1.2,1,2.3,2.2,2.4c-0.8,1-0.7,2.4,0.1,3.2l1.1,1.1c0.9,0.9,2.3,0.9,3.2,0.1c0.1,1.2,1.2,2.2,2.4,2.2h1.6c1.2,0,2.3-1,2.4-2.2
		c1,0.8,2.4,0.7,3.2-0.1l1.1-1.1c0.9-0.9,0.9-2.3,0.1-3.2c1.2-0.1,2.2-1.2,2.2-2.4v-1.6C50,37.5,49.1,36.5,47.8,36.4z M48.2,40.4
		c0,0.3-0.2,0.5-0.5,0.5c0,0,0,0,0,0h-1.3c-0.2,0.8-0.5,1.5-0.9,2.1l0.9,0.9c0.2,0.2,0.2,0.5,0,0.7c0,0,0,0,0,0l-1.1,1.1
		c-0.2,0.2-0.5,0.2-0.7,0l-0.9-0.9c-0.6,0.4-1.4,0.7-2.1,0.9v1.3c0,0.3-0.2,0.5-0.5,0.5c0,0,0,0,0,0h-1.6c-0.3,0-0.5-0.2-0.5-0.5
		v-1.3c-0.8-0.2-1.5-0.5-2.1-0.9l-0.9,0.9c-0.2,0.2-0.5,0.2-0.7,0l-1.1-1.1c-0.2-0.2-0.2-0.5,0-0.7l0.9-0.9
		c-0.4-0.6-0.7-1.4-0.9-2.1h-1.3c-0.3,0-0.5-0.2-0.5-0.5c0,0,0,0,0,0v-1.6c0-0.3,0.2-0.5,0.5-0.5H34c0.2-0.8,0.5-1.5,0.9-2.1
		l-0.9-0.9c-0.2-0.2-0.2-0.5,0-0.7l1.1-1.1c0.2-0.2,0.5-0.2,0.7,0l0.9,0.9c0.6-0.4,1.4-0.7,2.1-0.9v-1.3c0-0.3,0.2-0.5,0.5-0.5h1.6
		c0.3,0,0.5,0.2,0.5,0.5v1.3c0.8,0.2,1.5,0.5,2.1,0.9l0.9-0.9c0.2-0.2,0.5-0.2,0.7,0l1.1,1.1c0.2,0.2,0.2,0.5,0,0.7c0,0,0,0,0,0
		l-0.9,0.9c0.4,0.6,0.7,1.4,0.9,2.1h1.3c0.3,0,0.5,0.2,0.5,0.5L48.2,40.4z"/>
	<path class="st1" d="M40.2,35.8c-2.1,0-3.8,1.7-3.8,3.8s1.7,3.8,3.8,3.8c2.1,0,3.8-1.7,3.8-3.8c0,0,0,0,0,0
		C43.9,37.5,42.2,35.8,40.2,35.8z M40.2,41.5c-1,0-1.9-0.8-1.9-1.9c0-1,0.8-1.9,1.9-1.9c1,0,1.9,0.8,1.9,1.9c0,0,0,0,0,0
		C42,40.6,41.2,41.5,40.2,41.5z"/>
	<path class="st1" d="M40.2,13.2c0.5,0,0.9-0.4,0.9-0.9c0,0,0,0,0,0v-1.9c0-0.5-0.4-0.9-0.9-0.9c-0.5,0-0.9,0.4-0.9,0.9v1.9
		C39.2,12.8,39.6,13.2,40.2,13.2C40.2,13.2,40.2,13.2,40.2,13.2z"/>
	<path class="st1" d="M34.4,12.8c0.1,0.5,0.6,0.9,1.1,0.8c0.5-0.1,0.9-0.6,0.8-1.1l-0.2-0.9c-0.1-0.5-0.6-0.9-1.1-0.8
		c-0.5,0.1-0.9,0.6-0.8,1.1L34.4,12.8z"/>
	<path class="st1" d="M25.5,16.4c0.3,0.4,0.8,0.6,1.3,0.3c0.4-0.3,0.6-0.8,0.3-1.3c0,0,0,0,0,0l-0.5-0.8c-0.3-0.4-0.8-0.6-1.3-0.3
		c-0.4,0.3-0.6,0.8-0.3,1.3L25.5,16.4z"/>
	<path class="st1" d="M18.3,22.9c0.4,0.3,1,0.3,1.3-0.1c0.3-0.4,0.3-1-0.1-1.3l0,0l-0.7-0.6c-0.4-0.3-1-0.3-1.3,0.1
		c-0.3,0.4-0.3,1,0.1,1.3l0,0L18.3,22.9z"/>
	<path class="st1" d="M12.9,31l0.9,0.3c0.5,0.2,1-0.1,1.2-0.6c0.2-0.5-0.1-1-0.6-1.2l-0.9-0.3c-0.5-0.2-1,0.1-1.2,0.6
		S12.4,30.8,12.9,31C12.9,31,12.9,31,12.9,31z"/>
	<path class="st1" d="M11.5,38.9L11.5,38.9c-0.5,0-0.9,0.4-0.9,0.9c0,0.5,0.4,0.9,0.9,0.9l0.9,0h0c0.5,0,0.9-0.4,0.9-0.9
		c0-0.5-0.4-0.9-0.9-0.9L11.5,38.9z"/>
	<path class="st1" d="M15,49c-0.2-0.5-0.7-0.7-1.2-0.6c0,0,0,0,0,0l-0.9,0.3c-0.5,0.2-0.7,0.7-0.6,1.2c0.1,0.4,0.5,0.6,0.9,0.6
		c0.4-0.1,0.8-0.2,1.2-0.4C14.9,50,15.2,49.5,15,49C15,49,15,49,15,49z"/>
	<path class="st1" d="M67.4,48.8l-0.9-0.3c-0.5-0.2-1,0.1-1.2,0.6c-0.2,0.5,0.1,1,0.6,1.2l0.9,0.3c0.5,0.2,1-0.1,1.2-0.6
		C68.2,49.5,67.9,49,67.4,48.8z"/>
	<path class="st1" d="M67.9,39L67.9,39c-0.5,0-0.9,0.4-0.9,0.9c0,0.5,0.4,0.9,0.9,0.9l0.9,0h0c0.5,0,0.9-0.4,0.9-0.9
		c0-0.5-0.4-0.9-0.9-0.9L67.9,39z"/>
	<path class="st1" d="M65.3,30.8c0.2,0.5,0.7,0.7,1.2,0.6l0.9-0.3c0.5-0.2,0.7-0.7,0.6-1.2s-0.7-0.7-1.2-0.6c0,0,0,0,0,0l-0.9,0.3
		C65.4,29.7,65.2,30.3,65.3,30.8z"/>
	<path class="st1" d="M61.4,23.1c0.2,0,0.4-0.1,0.6-0.2l0.7-0.6c0.4-0.3,0.5-0.9,0.1-1.3c-0.3-0.4-0.9-0.5-1.3-0.1l-0.7,0.6
		c-0.4,0.3-0.4,0.9-0.1,1.3C60.9,22.9,61.1,23.1,61.4,23.1z"/>
	<path class="st1" d="M53.6,16.8c0.5,0.3,1,0.1,1.3-0.3l0.5-0.8c0.3-0.4,0.1-1-0.3-1.3c-0.4-0.3-1-0.1-1.3,0.3l-0.5,0.8
		C53,15.9,53.1,16.5,53.6,16.8C53.6,16.8,53.6,16.8,53.6,16.8z"/>
	<path class="st1" d="M44.8,13.6c0.5,0.1,1-0.3,1.1-0.8l0.2-0.9c0.1-0.5-0.2-1-0.8-1.1c-0.5-0.1-1,0.2-1.1,0.8c0,0,0,0,0,0l-0.2,0.9
		C44,13,44.3,13.5,44.8,13.6z"/>
	<path class="st1" d="M15.7,52.9L14,53.8c-0.5,0.3-0.6,0.8-0.3,1.3c0.3,0.4,0.8,0.6,1.3,0.3l1.6-0.9c0.5-0.3,0.6-0.8,0.4-1.3
		S16.1,52.6,15.7,52.9C15.7,52.9,15.7,52.9,15.7,52.9z"/>
	<path class="st1" d="M13.8,44.5c-0.1-0.5-0.6-0.9-1.1-0.8c0,0,0,0,0,0l-1.9,0.3c-0.5,0.1-0.9,0.6-0.8,1.1c0.1,0.5,0.5,0.8,0.9,0.8
		c0.1,0,2-0.3,2-0.3C13.5,45.5,13.9,45,13.8,44.5C13.8,44.5,13.8,44.5,13.8,44.5z"/>
	<path class="st1" d="M10.8,35.7c0,0,2,0.3,2,0.3c0.5,0,0.9-0.4,0.9-0.9c0-0.5-0.3-0.9-0.8-0.9l-1.9-0.3c-0.5-0.1-1,0.2-1.1,0.8
		C10,35.1,10.3,35.6,10.8,35.7C10.8,35.7,10.8,35.7,10.8,35.7z"/>
	<path class="st1" d="M21.6,19.3c0.3,0.4,0.9,0.4,1.3,0.1c0.4-0.3,0.4-0.9,0.1-1.3c0,0,0,0,0,0l-1.2-1.4c-0.3-0.4-0.9-0.4-1.3-0.1
		s-0.4,0.9-0.1,1.3L21.6,19.3z"/>
	<path class="st1" d="M14,26l1.6,0.9c0.5,0.3,1,0.1,1.3-0.3c0.3-0.5,0.1-1-0.3-1.3c0,0,0,0,0,0L15,24.3c-0.5-0.3-1-0.1-1.3,0.3
		C13.4,25.1,13.6,25.7,14,26z"/>
	<path class="st1" d="M29.8,14.3c0.2,0.5,0.7,0.7,1.2,0.6c0.5-0.2,0.7-0.7,0.6-1.2c0,0,0,0,0,0l-0.6-1.8c-0.2-0.5-0.7-0.7-1.2-0.6
		c-0.5,0.2-0.7,0.7-0.6,1.2c0,0,0,0,0,0L29.8,14.3z"/>
	<path class="st1" d="M49.3,14.8c0.5,0.2,1-0.1,1.2-0.6l0.6-1.8c0.2-0.5-0.1-1-0.6-1.2c-0.5-0.2-1,0.1-1.2,0.6c0,0,0,0,0,0l-0.6,1.8
		C48.6,14.1,48.8,14.6,49.3,14.8C49.3,14.8,49.3,14.8,49.3,14.8z"/>
	<path class="st1" d="M66.5,35.3c0.1,0.5,0.5,0.8,0.9,0.8c0.1,0,2-0.3,2-0.3c0.5-0.1,0.9-0.6,0.8-1.1c-0.1-0.5-0.6-0.9-1.1-0.8
		c0,0,0,0,0,0l-1.9,0.3C66.8,34.3,66.5,34.7,66.5,35.3C66.5,35.3,66.5,35.3,66.5,35.3z"/>
	<path class="st1" d="M64.2,27c0.4,0,2-1,2.1-1.1c0.5-0.3,0.6-0.8,0.3-1.3c-0.3-0.5-0.8-0.6-1.3-0.3l0,0l-1.6,0.9
		c-0.5,0.3-0.6,0.8-0.4,1.3C63.5,26.8,63.8,27,64.2,27z"/>
	<path class="st1" d="M58,19.7c0.3,0,0.5-0.1,0.7-0.3l1.2-1.4c0.3-0.4,0.3-1-0.1-1.3c-0.4-0.3-1-0.3-1.3,0.1l-1.2,1.4
		c-0.3,0.4-0.3,1,0.1,1.3C57.6,19.6,57.8,19.7,58,19.7z"/>
	<path class="st1" d="M66.3,53.8l-1.6-0.9c-0.5-0.3-1-0.1-1.3,0.3c-0.3,0.5-0.1,1,0.3,1.3c0,0,0,0,0,0l1.6,0.9
		c0.5,0.3,1,0.1,1.3-0.3C66.9,54.7,66.7,54.1,66.3,53.8z"/>
	<path class="st1" d="M69.5,44.1l-1.9-0.3c-0.5-0.1-1,0.2-1.1,0.8c-0.1,0.5,0.2,1,0.8,1.1c0,0,0,0,0,0c0,0,2,0.3,2,0.3
		c0.5,0,0.9-0.4,0.9-0.9C70.3,44.6,70,44.2,69.5,44.1z"/>
</g>
</svg>
