<?xml version="1.0" encoding="utf-8"?>
<!-- Generator: Adobe Illustrator 24.2.0, SVG Export Plug-In . SVG Version: 6.00 Build 0)  -->
<svg version="1.1" xmlns="http://www.w3.org/2000/svg" xmlns:xlink="http://www.w3.org/1999/xlink" x="0px" y="0px"
	 viewBox="0 0 80 80" style="enable-background:new 0 0 80 80;" xml:space="preserve">
<style type="text/css">
	.st0{fill:#3953A4;}
	.st1{fill:#FFFFFF;}
</style>
<g id="Layer_1">
	<circle class="st0" cx="40" cy="39.3" r="38.1"/>
</g>
<g id="Layer_2">
	<path class="st1" d="M51.9,51c-0.1-0.1-0.3-0.2-0.4-0.2l0,0l-5.4-1.2l-0.4,1.7l1.5,0.3l-7.5,1.6l-7.5-1.6l1.5-0.3l-0.4-1.7L28,50.7
		l0,0c-0.2,0-0.3,0.1-0.4,0.2l-3.7,3.7c-0.3,0.3-0.3,0.9,0,1.2c0.1,0.1,0.2,0.2,0.4,0.2l2.3,0.6v8.6c0,0.4,0.3,0.7,0.6,0.8l12.3,3.7
		c0.1,0,0.2,0,0.3,0c0.1,0,0.2,0,0.3,0l0,0l12.3-3.7c0.4-0.1,0.6-0.5,0.6-0.8v-8.6l2.3-0.6c0.5-0.1,0.8-0.6,0.6-1.1
		c0-0.2-0.1-0.3-0.2-0.4L51.9,51z M26.2,54.9l2.3-2.3l9.8,2.1l-2,2.8L26.2,54.9z M38.9,67.9l-10.6-3.2v-7.5l8.1,2.1
		c0.1,0,0.1,0,0.2,0c0.3,0,0.5-0.1,0.7-0.4l1.5-2.1V67.9z M51.2,64.7l-10.6,3.2V56.8l1.5,2.1c0.2,0.2,0.4,0.4,0.7,0.4
		c0.1,0,0.1,0,0.2,0l8.1-2.1V64.7z M43.2,57.4l-2-2.8l9.8-2.1l2.3,2.3L43.2,57.4z"/>
	<path class="st1" d="M41.9,24.7c-0.7-0.2-1.5-0.3-2.3-0.3c-0.7,0-1.4,0.1-2.1,0.3c-0.4,0.1-0.6,0.5-0.7,0.8l0,0.9
		c-0.3,0.2-0.7,0.3-1,0.6c0,0-0.1,0-0.1,0l-0.8-0.4c-0.3-0.2-0.8-0.1-1,0.1c-1,1-1.8,2.3-2.2,3.7c-0.1,0.4,0.1,0.8,0.4,1l0.8,0.4
		c0,0.2,0,0.4,0,0.6c0,0.2,0,0.4,0,0.6l-0.8,0.4c-0.4,0.2-0.5,0.6-0.4,1c0.4,1.4,1.1,2.7,2.2,3.7c0.3,0.3,0.7,0.3,1,0.1l0.8-0.4
		c0,0,0.1,0,0.1,0c0.3,0.2,0.7,0.4,1,0.6V39c0,0.4,0.3,0.7,0.7,0.8c0.7,0.2,1.4,0.3,2.2,0.3c0,0,0.1,0,0.1,0c0.7,0,1.4-0.1,2.1-0.3
		c0.4-0.1,0.6-0.5,0.7-0.8l0-0.9c0.3-0.2,0.7-0.3,1-0.6c0,0,0.1,0,0.1,0l0.8,0.4c0.3,0.2,0.8,0.1,1-0.1c1-1,1.8-2.3,2.2-3.7
		c0.1-0.4-0.1-0.8-0.4-1l-0.8-0.4c0-0.2,0-0.4,0-0.6c0-0.2,0-0.4,0-0.6l0.8-0.4c0.4-0.2,0.5-0.6,0.4-1c-0.4-1.4-1.1-2.7-2.2-3.7
		c-0.3-0.3-0.7-0.3-1-0.1l-0.8,0.4c0,0-0.1,0-0.1,0c-0.3-0.2-0.7-0.4-1-0.6v-0.8C42.6,25.1,42.3,24.8,41.9,24.7z M42.6,28.4
		c0.6,0.4,1.3,0.4,1.9,0.1l0.2-0.1c0.4,0.5,0.8,1.1,1,1.7L45,30.5c-0.3,0.2-0.5,0.6-0.4,0.9c0.1,0.6,0.1,1.2,0,1.7
		c-0.1,0.4,0.1,0.7,0.4,0.9l0.7,0.4c-0.2,0.6-0.6,1.2-1,1.7l-0.2-0.1c-0.6-0.3-1.3-0.3-1.9,0.1c-0.2,0.2-0.5,0.3-0.7,0.4
		c-0.6,0.3-1,0.9-1,1.6v0.1c-0.3,0.1-0.6,0.1-1,0.1c-0.4,0-0.8,0-1.1-0.1v-0.1c0-0.7-0.4-1.3-1-1.6c-0.3-0.1-0.5-0.3-0.7-0.4
		c-0.6-0.4-1.3-0.4-1.9-0.1l-0.2,0.1c-0.4-0.5-0.8-1.1-1-1.7l0.7-0.4c0.3-0.2,0.5-0.6,0.4-0.9c-0.1-0.6-0.1-1.2,0-1.7
		c0.1-0.4-0.1-0.7-0.4-0.9l-0.7-0.4c0.2-0.6,0.6-1.2,1-1.7l0.2,0.1c0.6,0.3,1.3,0.3,1.9-0.1c0.2-0.2,0.5-0.3,0.7-0.4
		c0.6-0.3,1-0.9,1-1.6v-0.1c0.3-0.1,0.6-0.1,1-0.1c0.4,0,0.8,0,1.1,0.1v0.1c0,0.7,0.4,1.3,1,1.6C42.1,28.1,42.4,28.2,42.6,28.4
		L42.6,28.4z"/>
	<path class="st1" d="M36.2,32.3c0,1.9,1.6,3.5,3.5,3.5s3.5-1.6,3.5-3.5s-1.6-3.5-3.5-3.5C37.8,28.8,36.3,30.3,36.2,32.3z
		 M41.5,32.3c0,1-0.8,1.8-1.8,1.8c-1,0-1.8-0.8-1.8-1.8s0.8-1.8,1.8-1.8C40.7,30.5,41.5,31.3,41.5,32.3z"/>
	<rect x="43.3" y="40.2" class="st1" width="1.8" height="6.1"/>
	<rect x="38.9" y="41.9" class="st1" width="1.8" height="7"/>
	<rect x="34.5" y="40.2" class="st1" width="1.8" height="6.1"/>
	<path class="st1" d="M65.2,15.6H53.8c-1,0-1.8,0.8-1.8,1.8v11.4c0,1,0.8,1.8,1.8,1.8h11.4c1,0,1.8-0.8,1.8-1.8V17.4
		C66.9,16.4,66.2,15.6,65.2,15.6z M53.8,28.8V17.4h11.4l0,11.4H53.8z"/>
	<path class="st1" d="M65.2,33.1H53.8c-1,0-1.8,0.8-1.8,1.8v11.4c0,1,0.8,1.8,1.8,1.8h11.4c1,0,1.8-0.8,1.8-1.8V34.9
		C66.9,33.9,66.2,33.1,65.2,33.1z M62.6,46.3h-6.1v-2.6c0-1,0.8-1.8,1.8-1.8h2.6c1,0,1.8,0.8,1.8,1.8V46.3z M58.2,38.8
		c0-0.7,0.6-1.3,1.3-1.3s1.3,0.6,1.3,1.3c0,0.7-0.6,1.3-1.3,1.3C58.8,40.2,58.2,39.6,58.2,38.8z M64.3,46.3v-2.6
		c0-1.4-0.9-2.7-2.2-3.3c0.3-0.5,0.4-1,0.4-1.6c0-1.7-1.4-3.1-3.1-3.1s-3.1,1.4-3.1,3.1c0,0.6,0.2,1.1,0.4,1.6
		c-1.3,0.5-2.2,1.8-2.2,3.3v2.6h-0.9V34.9h11.4l0,11.4H64.3z"/>
	<path class="st1" d="M14.3,30.5h11.4c1,0,1.8-0.8,1.8-1.8V17.4c0-1-0.8-1.8-1.8-1.8H14.3c-1,0-1.8,0.8-1.8,1.8v11.4
		C12.6,29.7,13.4,30.5,14.3,30.5z M14.3,17.4h11.4l0,11.4H14.3V17.4z"/>
	<rect x="57.3" y="21.7" class="st1" width="1.8" height="6.1"/>
	<rect x="54.7" y="23.5" class="st1" width="1.8" height="4.4"/>
	<rect x="59.9" y="20" class="st1" width="1.8" height="7.9"/>
	<rect x="62.6" y="18.2" class="st1" width="1.8" height="9.6"/>
	<path class="st1" d="M14.3,48.1h11.4c1,0,1.8-0.8,1.8-1.8V34.9c0-1-0.8-1.8-1.8-1.8H14.3c-1,0-1.8,0.8-1.8,1.8v11.4
		C12.6,47.3,13.4,48.1,14.3,48.1z M14.3,34.9h11.4l0,11.4H14.3V34.9z"/>
	<path class="st1" d="M24,21.4l-2.1-0.3L21,19.2c-0.2-0.4-0.7-0.6-1.2-0.4c-0.2,0.1-0.3,0.2-0.4,0.4l-0.9,1.9l-2.1,0.3
		c-0.5,0.1-0.8,0.5-0.7,1c0,0.2,0.1,0.4,0.3,0.5l1.5,1.5l-0.4,2.1c-0.1,0.5,0.2,0.9,0.7,1c0.2,0,0.4,0,0.6-0.1l1.9-1l1.9,1
		c0.4,0.2,1,0.1,1.2-0.4c0.1-0.2,0.1-0.4,0.1-0.6L23,24.3l1.5-1.5c0.3-0.3,0.4-0.9,0-1.2C24.4,21.5,24.2,21.4,24,21.4L24,21.4z
		 M21.4,23.4c-0.2,0.2-0.3,0.5-0.3,0.8l0.1,0.8l-0.7-0.4c-0.3-0.1-0.6-0.1-0.8,0L19.1,25l0.1-0.8c0-0.3,0-0.6-0.3-0.8l-0.6-0.6
		l0.8-0.1c0.3,0,0.5-0.2,0.7-0.5l0.4-0.7l0.4,0.7c0.1,0.3,0.4,0.4,0.7,0.5l0.8,0.1L21.4,23.4z"/>
	<path class="st1" d="M20,38c0.5,0,0.9,0.4,0.9,0.9h1.8c0-1.1-0.7-2.1-1.8-2.5v-1h-1.8v1c-1.4,0.5-2.1,2-1.6,3.3
		c0.4,1.1,1.4,1.8,2.5,1.8c0.5,0,0.9,0.4,0.9,0.9s-0.4,0.9-0.9,0.9c-0.5,0-0.9-0.4-0.9-0.9h-1.8c0,1.1,0.7,2.1,1.8,2.5v1h1.8v-1
		c1.4-0.5,2.1-2,1.6-3.3c-0.4-1.1-1.4-1.8-2.5-1.8c-0.5,0-0.9-0.4-0.9-0.9S19.5,38,20,38z"/>
	<rect x="38.9" y="49.8" class="st1" width="1.8" height="1.8"/>
	<rect x="43.3" y="47.2" class="st1" width="1.8" height="1.8"/>
	<rect x="34.5" y="47.2" class="st1" width="1.8" height="1.8"/>
</g>
</svg>
