<?xml version="1.0" encoding="utf-8"?>
<!-- Generator: Adobe Illustrator 24.2.0, SVG Export Plug-In . SVG Version: 6.00 Build 0)  -->
<svg version="1.1" id="Layer_1" xmlns="http://www.w3.org/2000/svg" xmlns:xlink="http://www.w3.org/1999/xlink" x="0px" y="0px"
	 viewBox="0 0 80 80" style="enable-background:new 0 0 80 80;" xml:space="preserve">
<style type="text/css">
	.st0{fill:#3953A4;}
	.st1{display:none;fill:#FFFFFF;}
	.st2{fill:#FFFFFF;}
</style>
<circle class="st0" cx="40" cy="39.3" r="38.1"/>
<path class="st1" d="M62.9,37.6c-1.2,0-2.1,0.7-2.5,1.7h-4.1c-0.2-2.1-1.1-3.8-1.4-4.3c0.1-0.7,0-1.3-0.2-1.9c0-0.1,0-0.1-0.1-0.1h2
	l1.9-1.4c0.4,0.3,1,0.5,1.5,0.5c1.5,0,2.8-1.2,2.8-2.8s-1.2-2.8-2.8-2.8c-1.5,0-2.8,1.2-2.8,2.8c0,0.3,0.1,0.6,0.1,0.8l-1.4,1.1
	h-2.5c-1-1.2-2.3-2-3-2.4c-0.1-1.1-0.6-2.2-1.2-3l5.4-6.3H61c0.4,1.1,1.4,1.9,2.6,1.9c1.5,0,2.8-1.2,2.8-2.8s-1.2-2.8-2.8-2.8
	c-1.2,0-2.2,0.8-2.6,1.9h-7.1L48,24.4c-0.9-0.6-1.9-0.9-3.1-0.9c-2.1,0-4,1.2-5,2.8c-1-1.6-2.8-2.7-4.8-2.7c-1.1,0-2.1,0.3-3,0.9
	l-6.1-6.9h-7.1c-0.4-1.1-1.4-1.9-2.6-1.9c-1.5,0-2.8,1.2-2.8,2.8s1.2,2.8,2.8,2.8c1.2,0,2.2-0.8,2.6-1.9h6.3l5.4,6.3
	c-0.7,0.9-1.2,1.9-1.3,3.2c-0.7,0.3-1.9,1.1-2.8,2.2h-2.7L22.5,30c0.1-0.2,0.1-0.5,0.1-0.8c0-1.5-1.2-2.8-2.8-2.8
	c-1.5,0-2.8,1.2-2.8,2.8c0,1.5,1.2,2.8,2.8,2.8c0.6,0,1.1-0.2,1.5-0.5l1.9,1.4h2.1c-0.1,0.1-0.1,0.2-0.1,0.3
	c-0.2,0.6-0.2,1.3-0.2,1.9c-0.3,0.6-1.1,2.1-1.4,4.1h-4.1c-0.4-1-1.4-1.7-2.5-1.7c-1.5,0-2.8,1.2-2.8,2.8s1.2,2.8,2.8,2.8
	c1.2,0,2.4-0.9,2.7-2h4c0.1,1.1,0.6,2.4,1.4,3.6c-0.3,0.7-0.5,1.6-0.5,2.7c0,0.1,0,0.1,0,0.1h-3.2L19.5,49c-0.4-0.3-1-0.5-1.5-0.5
	c-1.5,0-2.8,1.2-2.8,2.8s1.2,2.8,2.8,2.8c1.5,0,2.8-1.2,2.8-2.8c0-0.3-0.1-0.6-0.1-0.8l1.4-1.1h2.8c0.2,0.8,0.7,1.5,1.3,2
	c1.1,1.1,2.5,1.3,3.3,1.4c0.2,1,0.7,1.9,1.4,2.7l-5.1,5.8H21c-0.4-1.1-1.4-1.9-2.6-1.9c-1.5,0-2.8,1.2-2.8,2.8s1.2,2.8,2.8,2.8
	c1.2,0,2.2-0.8,2.6-1.9h5.8l5.7-6.6c0.8,0.4,1.7,0.6,2.6,0.6c0.2,0,0.4,0,0.6-0.1c1.5-0.2,2.9-0.9,3.8-2.1c0.2-0.2,0.4-0.5,0.5-0.7
	c0.1,0.2,0.2,0.4,0.4,0.6c1,1.2,2.4,1.9,3.8,2.1c0.2,0,0.4,0.1,0.6,0.1c0.9,0,1.7-0.2,2.5-0.6l5.8,6.7h5.8c0.4,1.1,1.4,1.9,2.6,1.9
	c1.5,0,2.8-1.2,2.8-2.8c0-1.5-1.2-2.8-2.8-2.8c-1.2,0-2.2,0.8-2.6,1.9H54l-5.1-5.9c0.7-0.7,1.3-1.7,1.5-2.7c0.9-0.1,2.3-0.4,3.3-1.4
	c0.6-0.5,0.9-1.1,1.2-1.9h3l1.4,1.1c-0.1,0.2-0.1,0.5-0.1,0.8c0,1.5,1.2,2.8,2.8,2.8s2.8-1.2,2.8-2.8s-1.2-2.8-2.8-2.8
	c-0.6,0-1.1,0.2-1.5,0.5l-1.9-1.4h-3.2c0-0.1,0-0.2,0-0.3c0-1.1-0.2-2-0.5-2.7c0.8-1.1,1.2-2.3,1.4-3.5h4.1c0.3,1.2,1.4,2,2.7,2
	c1.5,0,2.8-1.2,2.8-2.8C65.7,38.8,64.5,37.6,62.9,37.6z M38.3,54.1c-0.7,0.9-1.7,1.4-2.7,1.5c-1.1,0.1-2.1-0.2-3-0.9
	C31.7,54,31.2,53,31.1,52c-0.1-1.1,0.2-2.1,0.9-3c0.6-0.7,1.3-1.2,2.2-1.4c0.9,2,2.7,3,2.7,3c0.1,0.1,0.2,0.1,0.4,0.1
	c0.3,0,0.6-0.1,0.7-0.4c0.2-0.4,0.1-0.9-0.3-1.1c-0.2-0.1-4-2.4-1.7-7.1c0.2-0.4,0-0.9-0.4-1.1c-0.4-0.2-0.9,0-1.1,0.4
	c-0.9,1.8-1.1,3.4-0.8,4.6c-1.2,0.3-2.2,1-3,1.9c-0.7,0.9-1.2,2-1.2,3.2c-0.6-0.1-1.4-0.3-2.1-0.9c-0.7-0.6-1-1.6-1-2.8
	c0-1.6,0.5-2.8,1.4-3.5c0.8-0.6,1.7-0.6,2-0.6c0.3,0.2,0.8,0.2,1.1-0.1c0.3-0.3,0.3-0.9,0-1.2c-0.6-0.6-2-0.5-3-0.1
	c-0.5,0.2-1.1,0.6-1.6,1.1c-1.1-2-0.8-4.2-0.3-5.6c0.1,0.2,0.2,0.5,0.4,0.7c-0.2,0.7-0.2,1.4-0.1,2.1v0.1c0,0.4,0.2,0.7,0.6,0.8
	c0.1,0,0.1,0,0.2,0c0.4,0,0.7-0.2,0.8-0.6c0.1-0.2,0-0.4,0-0.5c-0.1-0.6-0.4-2.4,3-3.8c0.4-0.2,0.6-0.7,0.4-1.1s-0.7-0.6-1.1-0.4
	c-1.2,0.6-2.2,1.2-2.9,2c-0.5-1.1-0.6-2-0.3-2.9c0.1-0.3,0.2-0.6,0.4-0.8h0.1v-0.2c0.6-0.9,1.4-1.5,2.1-1.9c0.6,2.4,2.6,4.2,5.1,4.4
	c0.2,0.7,0.5,1.4,1.1,2c0.2,0.2,0.4,0.2,0.6,0.2c0.2,0,0.4-0.1,0.6-0.2c0.3-0.3,0.4-0.9,0-1.2c-1.3-1.4-0.5-4-0.4-4
	c0.1-0.4-0.1-0.9-0.5-1.1c-0.4-0.1-0.9,0.1-1.1,0.5c0,0.1-0.3,0.9-0.4,2c-1.9-0.3-3.4-2-3.4-4c0-2.2,1.8-4,4-4c2.2,0,4,1.7,4,3.9
	c0,0.1,0,0.1,0,0.2v21.6v0.1C39.2,52.2,38.9,53.3,38.3,54.1z M52.2,42c-1.1-0.4-2.5-0.6-3,0.1c-0.3,0.3-0.3,0.9,0,1.2
	c0.3,0.3,0.7,0.3,1.1,0.1c0.2-0.1,1.1,0,2,0.6c0.9,0.7,1.4,1.9,1.4,3.5c0,1.2-0.4,2.2-1,2.8c-0.6,0.6-1.5,0.8-2.1,0.9
	c-0.1-1.2-0.5-2.3-1.2-3.2c-0.7-0.9-1.8-1.6-3-1.9c0.2-1.3,0.1-2.8-0.8-4.6c-0.2-0.4-0.7-0.6-1.1-0.4c-0.4,0.2-0.6,0.7-0.4,1.1
	c2.3,4.8-1.5,7.1-1.7,7.1c-0.4,0.2-0.6,0.7-0.3,1.1c0.2,0.2,0.4,0.4,0.7,0.4c0.1,0,0.3-0.1,0.4-0.1c0,0,1.7-1.1,2.7-3
	c0.9,0.2,1.6,0.7,2.2,1.4c0.7,0.9,1,1.9,0.9,3c-0.1,1.1-0.6,2-1.5,2.7s-1.9,1-3,0.9c-1.1-0.1-2-0.6-2.7-1.5c-0.7-0.9-1-1.9-0.9-3
	V29.4c0-0.1,0-0.1,0-0.2c0.1-2.2,1.9-3.9,4-3.9c2.2,0,4,1.8,4,4c0,2-1.5,3.7-3.4,4c-0.1-1.1-0.3-1.9-0.4-2c-0.1-0.4-0.6-0.7-1.1-0.5
	c-0.4,0.1-0.7,0.6-0.5,1.1c0,0,0.9,2.6-0.4,4c-0.3,0.3-0.3,0.9,0,1.2c0.2,0.2,0.4,0.2,0.6,0.2c0.2,0,0.4-0.1,0.6-0.2
	c0.6-0.6,0.9-1.3,1.1-2c2.5-0.2,4.5-2,5.1-4.4c0.7,0.4,1.5,1.1,2.1,1.9V33h0.2c0.1,0.2,0.2,0.4,0.2,0.6c0.2,0.9,0.2,1.9-0.3,2.9
	c-0.7-0.7-1.7-1.4-2.9-2c-0.4-0.2-0.9,0-1.1,0.4c-0.2,0.4,0,0.9,0.4,1.1c3.5,1.5,3.1,3.3,3,3.8c0,0.1-0.1,0.3,0,0.5
	c0.1,0.4,0.4,0.6,0.8,0.6c0.1,0,0.1,0,0.2,0c0.4-0.1,0.6-0.4,0.6-0.8v-0.1c0.1-0.7,0.1-1.4-0.1-2.1c0.1-0.2,0.3-0.4,0.4-0.7
	c0.5,1.5,0.9,3.7-0.2,5.6C53.3,42.5,52.7,42.1,52.2,42z"/>
<path class="st2" d="M44.8,36.6c0-1.3-0.7-2.5-1.9-3v-1.3c0-0.5-0.4-1-1-1c-0.5,0-1,0.4-1,1v1H39v-1c0-0.5-0.4-1-1-1
	c-0.5,0-1,0.4-1,1v1h-1c-0.5,0-1,0.4-1,1v9.6c0,0.5,0.4,1,1,1h1v1c0,0.5,0.4,1,1,1c0.5,0,1-0.4,1-1v-1H41v1c0,0.5,0.4,1,1,1
	c0.5,0,1-0.4,1-1v-1.3c1.7-0.8,2.4-2.8,1.6-4.5c-0.2-0.4-0.4-0.7-0.7-1C44.4,38.4,44.8,37.5,44.8,36.6z M42.9,41.4
	c0,0.8-0.6,1.4-1.4,1.4h-4.3V40h4.3C42.2,40,42.9,40.6,42.9,41.4z M37.1,38.1v-2.9h4.3c0.8,0,1.4,0.6,1.4,1.4c0,0.8-0.6,1.4-1.4,1.4
	H37.1z"/>
<path class="st2" d="M68.3,31.2c0.3-0.2,0.5-0.5,0.5-0.8v-5.8c0-0.3-0.2-0.6-0.5-0.8l-4.8-2.9c-0.3-0.2-0.7-0.2-1,0l-4.2,2.5
	l-12.6-7.9v-1.5c0-0.3-0.2-0.6-0.5-0.8l-4.8-2.9c-0.3-0.2-0.7-0.2-1,0l-4.8,2.9c-0.3,0.2-0.5,0.5-0.5,0.8v1.5l-12.6,7.9l-4.2-2.5
	c-0.3-0.2-0.7-0.2-1,0l-4.8,2.9c-0.3,0.2-0.5,0.5-0.5,0.8v5.8c0,0.3,0.2,0.6,0.5,0.8l4.3,2.6v10.4l-4.3,2.6
	c-0.3,0.2-0.5,0.5-0.5,0.8v5.8c0,0.3,0.2,0.6,0.5,0.8l4.8,2.9c0.3,0.2,0.7,0.2,1,0l4.2-2.5l12.6,7.9V64c0,0.3,0.2,0.6,0.5,0.8
	l4.8,2.9c0.3,0.2,0.7,0.2,1,0l4.8-2.9c0.3-0.2,0.5-0.5,0.5-0.8v-1.5l12.6-7.9l4.2,2.5c0.3,0.2,0.7,0.2,1,0l4.8-2.9
	c0.3-0.2,0.5-0.5,0.5-0.8v-5.8c0-0.3-0.2-0.6-0.5-0.8L64,44.2V33.8L68.3,31.2z M64,31.6V28l2.9-1.7v3.5L64,31.6z M63,49.4l-2.9-1.8
	l2.9-1.8l2.9,1.8L63,49.4z M59.2,26.2l2.9,1.8v3.5l-2.9-1.7V26.2z M63,22.9l2.9,1.8L63,26.4l-2.9-1.8L63,22.9z M40,60l-2.9-1.8
	l2.9-1.8l2.9,1.8L40,60z M40,48.6c-5.3,0-9.6-4.3-9.6-9.6s4.3-9.6,9.6-9.6s9.6,4.3,9.6,9.6C49.6,44.3,45.3,48.6,40,48.6z M36.2,15.8
	l2.9,1.7V21l-2.9-1.7V15.8z M40,12.3l2.9,1.8L40,15.8l-2.9-1.8L40,12.3z M43.8,15.8v3.5L41,21v-3.5L43.8,15.8z M17,49.4L14,47.7
	l2.9-1.8l2.9,1.8L17,49.4z M17,22.9l2.9,1.7L17,26.4L14,24.6L17,22.9z M20.8,26.2v3.6l-2.9,1.7V28L20.8,26.2z M13.1,29.8v-3.5L16,28
	v3.5L13.1,29.8z M13.1,49.3l2.9,1.7v3.5l-2.9-1.7V49.3z M17.9,54.6v-3.5l2.9-1.7v3.5L17.9,54.6z M22.7,53v-5.3
	c0-0.3-0.2-0.6-0.5-0.8l-4.3-2.6V33.8l4.3-2.6c0.3-0.2,0.5-0.5,0.5-0.8V25l11.5-7.2v2c0,0.3,0.2,0.6,0.5,0.8l4.3,2.6v4.3
	c-6.3,0.5-11,6.1-10.5,12.4C29,45.6,33.4,50,39,50.5v4.3l-4.3,2.6c-0.3,0.2-0.5,0.5-0.5,0.8v2L22.7,53z M36.2,59.9l2.9,1.7v3.5
	l-2.9-1.7V59.9z M41,65.2v-3.5l2.9-1.7v3.5L41,65.2z M45.3,57.4L41,54.8v-4.3c6.3-0.5,11-6.1,10.5-12.4C51,32.4,46.6,28,41,27.5
	v-4.3l4.3-2.6c0.3-0.2,0.5-0.5,0.5-0.8v-2L57.3,25v5.3c0,0.3,0.2,0.6,0.5,0.8l4.3,2.6v10.4l-4.3,2.6c-0.3,0.2-0.5,0.5-0.5,0.8V53
	l-11.5,7.2v-2C45.8,57.9,45.6,57.6,45.3,57.4z M59.2,49.3l2.9,1.7v3.5l-2.9-1.7V49.3z M64,54.6v-3.5l2.9-1.7v3.5L64,54.6z"/>
</svg>
