<?xml version="1.0" encoding="utf-8"?>
<!-- Generator: Adobe Illustrator 24.2.0, SVG Export Plug-In . SVG Version: 6.00 Build 0)  -->
<svg version="1.1" xmlns="http://www.w3.org/2000/svg" xmlns:xlink="http://www.w3.org/1999/xlink" x="0px" y="0px"
	 viewBox="0 0 80 80" style="enable-background:new 0 0 80 80;" xml:space="preserve">
<style type="text/css">
	.st0{fill:#3953A4;}
	.st1{fill:#FFFFFF;stroke:#FFFFFF;stroke-width:0.5;stroke-miterlimit:10;}
</style>
<g id="Layer_1">
	<circle class="st0" cx="40" cy="39.3" r="38.1"/>
</g>
<g id="Layer_2">
	<g>
		<path class="st1" d="M27.2,17.3V21H29v-3.7c1-0.4,1.8-1.3,1.8-2.5c0-1.5-1.2-2.7-2.7-2.7c-1.5,0-2.7,1.2-2.7,2.7
			C25.5,15.9,26.2,16.9,27.2,17.3z M28.1,13.9c0.5,0,0.9,0.4,0.9,0.9c0,0.5-0.4,0.9-0.9,0.9s-0.9-0.4-0.9-0.9
			C27.2,14.3,27.6,13.9,28.1,13.9z"/>
		<path class="st1" d="M34.3,17.3V21h1.8v-3.7c1-0.4,1.8-1.3,1.8-2.5c0-1.5-1.2-2.7-2.7-2.7c-1.5,0-2.7,1.2-2.7,2.7
			C32.6,15.9,33.3,16.9,34.3,17.3z M35.2,13.9c0.5,0,0.9,0.4,0.9,0.9c0,0.5-0.4,0.9-0.9,0.9c-0.5,0-0.9-0.4-0.9-0.9
			C34.3,14.3,34.7,13.9,35.2,13.9z"/>
		<path class="st1" d="M41.5,17.3V21h1.8v-3.7c1-0.4,1.8-1.3,1.8-2.5c0-1.5-1.2-2.7-2.7-2.7c-1.5,0-2.7,1.2-2.7,2.7
			C39.7,15.9,40.4,16.9,41.5,17.3z M42.4,13.9c0.5,0,0.9,0.4,0.9,0.9c0,0.5-0.4,0.9-0.9,0.9s-0.9-0.4-0.9-0.9
			C41.5,14.3,41.9,13.9,42.4,13.9z"/>
		<path class="st1" d="M48.6,17.3V21h1.8v-3.7c1-0.4,1.8-1.3,1.8-2.5c0-1.5-1.2-2.7-2.7-2.7s-2.7,1.2-2.7,2.7
			C46.8,15.9,47.5,16.9,48.6,17.3z M49.5,13.9c0.5,0,0.9,0.4,0.9,0.9c0,0.5-0.4,0.9-0.9,0.9s-0.9-0.4-0.9-0.9
			C48.6,14.3,49,13.9,49.5,13.9z"/>
		<path class="st1" d="M13.9,47.7c-1.5,0-2.7,1.2-2.7,2.7s1.2,2.7,2.7,2.7c1.2,0,2.1-0.7,2.5-1.8h3.7v-1.8h-3.7
			C16,48.4,15.1,47.7,13.9,47.7z M13.9,51.2c-0.5,0-0.9-0.4-0.9-0.9s0.4-0.9,0.9-0.9s0.9,0.4,0.9,0.9S14.4,51.2,13.9,51.2z"/>
		<path class="st1" d="M13.9,40.6c-1.5,0-2.7,1.2-2.7,2.7s1.2,2.7,2.7,2.7c1.2,0,2.1-0.7,2.5-1.8h3.7v-1.8h-3.7
			C16,41.3,15.1,40.6,13.9,40.6z M13.9,44.1c-0.5,0-0.9-0.4-0.9-0.9s0.4-0.9,0.9-0.9s0.9,0.4,0.9,0.9S14.4,44.1,13.9,44.1z"/>
		<path class="st1" d="M13.9,33.4c-1.5,0-2.7,1.2-2.7,2.7c0,1.5,1.2,2.7,2.7,2.7c1.2,0,2.1-0.7,2.5-1.8h3.7v-1.8h-3.7
			C16,34.2,15.1,33.4,13.9,33.4z M13.9,37c-0.5,0-0.9-0.4-0.9-0.9c0-0.5,0.4-0.9,0.9-0.9s0.9,0.4,0.9,0.9C14.8,36.6,14.4,37,13.9,37
			z"/>
		<path class="st1" d="M13.9,26.3c-1.5,0-2.7,1.2-2.7,2.7c0,1.5,1.2,2.7,2.7,2.7c1.2,0,2.1-0.7,2.5-1.8h3.7v-1.8h-3.7
			C16,27.1,15.1,26.3,13.9,26.3z M13.9,29.9c-0.5,0-0.9-0.4-0.9-0.9c0-0.5,0.4-0.9,0.9-0.9s0.9,0.4,0.9,0.9
			C14.8,29.5,14.4,29.9,13.9,29.9z"/>
		<path class="st1" d="M50.4,62.1v-3.7h-1.8v3.7c-1,0.4-1.8,1.3-1.8,2.5c0,1.5,1.2,2.7,2.7,2.7s2.7-1.2,2.7-2.7
			C52.1,63.4,51.4,62.4,50.4,62.1z M49.5,65.4c-0.5,0-0.9-0.4-0.9-0.9c0-0.5,0.4-0.9,0.9-0.9s0.9,0.4,0.9,0.9
			C50.4,65.1,50,65.4,49.5,65.4z"/>
		<path class="st1" d="M43.2,62.1v-3.7h-1.8v3.7c-1,0.4-1.8,1.3-1.8,2.5c0,1.5,1.2,2.7,2.7,2.7c1.5,0,2.7-1.2,2.7-2.7
			C45,63.4,44.3,62.4,43.2,62.1z M42.4,65.4c-0.5,0-0.9-0.4-0.9-0.9c0-0.5,0.4-0.9,0.9-0.9s0.9,0.4,0.9,0.9
			C43.2,65.1,42.8,65.4,42.4,65.4z"/>
		<path class="st1" d="M36.1,62.1v-3.7h-1.8v3.7c-1,0.4-1.8,1.3-1.8,2.5c0,1.5,1.2,2.7,2.7,2.7c1.5,0,2.7-1.2,2.7-2.7
			C37.9,63.4,37.2,62.4,36.1,62.1z M35.2,65.4c-0.5,0-0.9-0.4-0.9-0.9c0-0.5,0.4-0.9,0.9-0.9c0.5,0,0.9,0.4,0.9,0.9
			C36.1,65.1,35.7,65.4,35.2,65.4z"/>
		<path class="st1" d="M29,62.1v-3.7h-1.8v3.7c-1,0.4-1.8,1.3-1.8,2.5c0,1.5,1.2,2.7,2.7,2.7c1.5,0,2.7-1.2,2.7-2.7
			C30.8,63.4,30,62.4,29,62.1z M28.1,65.4c-0.5,0-0.9-0.4-0.9-0.9c0-0.5,0.4-0.9,0.9-0.9s0.9,0.4,0.9,0.9
			C29,65.1,28.6,65.4,28.1,65.4z"/>
		<path class="st1" d="M63.7,31.7c1.5,0,2.7-1.2,2.7-2.7c0-1.5-1.2-2.7-2.7-2.7c-1.2,0-2.1,0.7-2.5,1.8h-3.7v1.8h3.7
			C61.6,30.9,62.5,31.7,63.7,31.7z M63.7,28.1c0.5,0,0.9,0.4,0.9,0.9c0,0.5-0.4,0.9-0.9,0.9s-0.9-0.4-0.9-0.9
			C62.8,28.5,63.2,28.1,63.7,28.1z"/>
		<path class="st1" d="M63.7,33.4c-1.2,0-2.1,0.7-2.5,1.8h-3.7V37h3.7c0.4,1,1.3,1.8,2.5,1.8c1.5,0,2.7-1.2,2.7-2.7
			C66.4,34.6,65.2,33.4,63.7,33.4z M63.7,37c-0.5,0-0.9-0.4-0.9-0.9c0-0.5,0.4-0.9,0.9-0.9s0.9,0.4,0.9,0.9
			C64.6,36.6,64.2,37,63.7,37z"/>
		<path class="st1" d="M63.7,40.6c-1.2,0-2.1,0.7-2.5,1.8h-3.7v1.8h3.7c0.4,1,1.3,1.8,2.5,1.8c1.5,0,2.7-1.2,2.7-2.7
			S65.2,40.6,63.7,40.6z M63.7,44.1c-0.5,0-0.9-0.4-0.9-0.9s0.4-0.9,0.9-0.9s0.9,0.4,0.9,0.9S64.2,44.1,63.7,44.1z"/>
		<path class="st1" d="M63.7,47.7c-1.2,0-2.1,0.7-2.5,1.8h-3.7v1.8h3.7c0.4,1,1.3,1.8,2.5,1.8c1.5,0,2.7-1.2,2.7-2.7
			S65.2,47.7,63.7,47.7z M63.7,51.2c-0.5,0-0.9-0.4-0.9-0.9s0.4-0.9,0.9-0.9s0.9,0.4,0.9,0.9S64.2,51.2,63.7,51.2z"/>
		<path class="st1" d="M31.7,53h14.2c1.5,0,2.7-1.2,2.7-2.7V39.7c0-1.2-0.7-2.1-1.8-2.5v-2.8c0-4.4-3.6-8-8-8s-8,3.6-8,8v2.8
			c-1,0.4-1.8,1.3-1.8,2.5v10.7C29,51.8,30.2,53,31.7,53z M38.8,28.1c3.4,0,6.2,2.8,6.2,6.2V37h-1.8v-2.7c0-2.5-2-4.4-4.4-4.4
			s-4.4,2-4.4,4.4V37h-1.8v-2.7C32.6,30.9,35.4,28.1,38.8,28.1z M41.5,37h-5.3v-2.7c0-1.5,1.2-2.7,2.7-2.7s2.7,1.2,2.7,2.7V37z
			 M30.8,39.7c0-0.5,0.4-0.9,0.9-0.9h14.2c0.5,0,0.9,0.4,0.9,0.9v10.7c0,0.5-0.4,0.9-0.9,0.9H31.7c-0.5,0-0.9-0.4-0.9-0.9V39.7z"/>
		<path class="st1" d="M37.9,45.7v3.7h1.8v-3.7c1-0.4,1.8-1.3,1.8-2.5c0-1.5-1.2-2.7-2.7-2.7s-2.7,1.2-2.7,2.7
			C36.1,44.4,36.9,45.4,37.9,45.7z M38.8,42.3c0.5,0,0.9,0.4,0.9,0.9s-0.4,0.9-0.9,0.9s-0.9-0.4-0.9-0.9S38.3,42.3,38.8,42.3z"/>
		<path class="st1" d="M21.9,27.7v28.8h33.8V22.8H26.9L21.9,27.7z M53.9,24.5v30.2H23.7V28.5l3.9-3.9H53.9z"/>
	</g>
</g>
</svg>
