<?xml version="1.0" encoding="utf-8"?>
<!-- Generator: Adobe Illustrator 24.2.0, SVG Export Plug-In . SVG Version: 6.00 Build 0)  -->
<svg version="1.1" xmlns="http://www.w3.org/2000/svg" xmlns:xlink="http://www.w3.org/1999/xlink" x="0px" y="0px"
	 viewBox="0 0 80 80" style="enable-background:new 0 0 80 80;" xml:space="preserve">
<style type="text/css">
	.st0{fill:#3953A4;}
	.st1{fill:#FFFFFF;}
</style>
<g id="Layer_1">
	<circle class="st0" cx="40" cy="39.3" r="38.1"/>
</g>
<g id="Layer_2">
	<g>
		<path class="st1" d="M37.3,47c0.4,0.4,0.9,0.6,1.4,0.6c0.5,0,1-0.2,1.4-0.6c0.8-0.8,0.8-2,0-2.8l-6.5-6.5c0,0,0,0,0,0l-1.4-1.4
			l-1.4,1.4c0,0,0,0,0,0l-6.5,6.5c-0.8,0.8-0.8,2,0,2.8c0.8,0.8,2,0.8,2.8,0l3.1-3.1v16.8c0,1.1,0.9,2,2,2c1.1,0,2-0.9,2-2V43.9
			L37.3,47z"/>
		<path class="st1" d="M50.3,57.6l-3.1,3.1V43.9c0-1.1-0.9-2-2-2c-1.1,0-2,0.9-2,2v16.8l-3.1-3.1c-0.8-0.8-2-0.8-2.8,0
			c-0.8,0.8-0.8,2,0,2.8l6.5,6.5c0,0,0,0,0,0l1.4,1.4l1.4-1.4c0,0,0,0,0,0l6.5-6.5c0.8-0.8,0.8-2,0-2.8
			C52.4,56.8,51.1,56.8,50.3,57.6z"/>
		<path class="st1" d="M67.5,34.7c1.2-5.2,0.2-10.2-2.7-14.1c-4.4-5.8-12.4-7.6-19.8-4.6c-2.6-2.4-6.1-3.8-9.7-3.8
			c-7.6,0-13.9,6-14.4,13.5C14.1,26.9,8.9,32.9,8.9,40c0,7.6,5.9,13.9,13.5,14.4c0.1,0,0.1,0,0.2,0c1.2,0,2.3-1,2.4-2.2
			c0.1-1.3-0.9-2.5-2.2-2.5c-5-0.3-9-4.5-9-9.6c0-5.3,4.3-9.6,9.5-9.6l2.9,0l-0.3-2.7c0-0.3-0.1-0.7-0.1-1c0-5.3,4.3-9.6,9.6-9.6
			c2.8,0,5.5,1.2,7.4,3.4l1.2,1.4l1.7-0.9c5.8-2.9,12.1-1.9,15.4,2.5c2.2,2.9,2.8,7,1.6,11.1l-0.4,1.4l1.1,1c1.4,1.3,2.1,3,2.1,4.8
			c0,3.7-3,6.6-6.6,6.6c-1.1,0-2.3-0.3-3.3-0.9c-1.1-0.7-2.6-0.3-3.3,0.9c-0.7,1.1-0.3,2.6,0.9,3.3c1.7,1,3.7,1.5,5.6,1.5
			c6.3,0,11.4-5.1,11.4-11.4C70.1,39.3,69.2,36.7,67.5,34.7z"/>
	</g>
</g>
</svg>
